<svg width="434" height="40" viewBox="0 0 434 40" fill="none" xmlns="http://www.w3.org/2000/svg">
<rect width="434" height="40" rx="20" fill="#E7F6FF"/>
<rect x="6" y="6" width="86" height="28" rx="14" fill="#094B72"/>
<path d="M35.6929 25H36.8129V16.712L42.5529 25H43.5329V14.57H42.4129V22.802L36.6729 14.57H35.6929V25ZM49.2635 25.168C49.7769 25.168 50.2435 25.084 50.6635 24.916C51.0929 24.7387 51.4615 24.51 51.7695 24.23C52.0775 23.9407 52.3062 23.628 52.4555 23.292L51.5595 22.816C51.3262 23.208 51.0229 23.5347 50.6495 23.796C50.2762 24.0573 49.8142 24.188 49.2635 24.188C48.8155 24.188 48.3955 24.0807 48.0035 23.866C47.6115 23.6513 47.2895 23.3527 47.0375 22.97C46.7949 22.578 46.6642 22.1113 46.6455 21.57H52.5535C52.5722 21.4487 52.5862 21.332 52.5955 21.22C52.6049 21.0987 52.6095 20.9913 52.6095 20.898C52.6095 20.45 52.5302 20.016 52.3715 19.596C52.2129 19.1667 51.9842 18.784 51.6855 18.448C51.3869 18.1027 51.0229 17.832 50.5935 17.636C50.1735 17.4307 49.6929 17.328 49.1515 17.328C48.4702 17.328 47.8542 17.496 47.3035 17.832C46.7622 18.168 46.3329 18.63 46.0155 19.218C45.6982 19.7967 45.5395 20.464 45.5395 21.22C45.5395 21.976 45.7029 22.6527 46.0295 23.25C46.3562 23.8473 46.7995 24.3187 47.3595 24.664C47.9289 25 48.5635 25.168 49.2635 25.168ZM49.1515 18.308C49.5715 18.308 49.9542 18.406 50.2995 18.602C50.6542 18.798 50.9342 19.0687 51.1395 19.414C51.3542 19.75 51.4662 20.142 51.4755 20.59H46.6735C46.7295 20.1233 46.8742 19.722 47.1075 19.386C47.3502 19.0407 47.6489 18.7747 48.0035 18.588C48.3582 18.4013 48.7409 18.308 49.1515 18.308ZM56.1128 25H57.1628L58.9688 19.064L60.7608 25H61.8108L64.3868 17.496H63.2108L61.2928 23.39L59.4868 17.496H58.4368L56.6448 23.39L54.7268 17.496H53.5368L56.1128 25Z" fill="white"/>
<path d="M105.746 26.168C106.409 26.168 106.992 26.0467 107.496 25.804C108.009 25.5613 108.406 25.23 108.686 24.81C108.975 24.3807 109.12 23.886 109.12 23.326C109.12 22.6353 108.91 22.0613 108.49 21.604C108.07 21.1467 107.449 20.7967 106.628 20.554L104.976 20.064C104.416 19.896 104.001 19.644 103.73 19.308C103.459 18.9627 103.324 18.5753 103.324 18.146C103.324 17.614 103.511 17.194 103.884 16.886C104.257 16.5687 104.743 16.41 105.34 16.41C105.975 16.41 106.525 16.5687 106.992 16.886C107.468 17.2033 107.818 17.67 108.042 18.286L109.022 17.894C108.873 17.4367 108.625 17.0213 108.28 16.648C107.935 16.2747 107.51 15.976 107.006 15.752C106.511 15.5187 105.951 15.402 105.326 15.402C104.729 15.402 104.192 15.5233 103.716 15.766C103.249 16.0087 102.881 16.3447 102.61 16.774C102.339 17.194 102.204 17.6793 102.204 18.23C102.204 18.874 102.4 19.448 102.792 19.952C103.193 20.456 103.763 20.8153 104.5 21.03L106.376 21.59C106.899 21.7393 107.3 21.954 107.58 22.234C107.86 22.514 108 22.9107 108 23.424C108 23.9467 107.79 24.3667 107.37 24.684C106.959 25.0013 106.418 25.16 105.746 25.16C105.037 25.16 104.425 24.978 103.912 24.614C103.399 24.2407 103.021 23.6993 102.778 22.99L101.77 23.368C101.929 23.8813 102.195 24.3527 102.568 24.782C102.941 25.202 103.399 25.538 103.94 25.79C104.481 26.042 105.083 26.168 105.746 26.168ZM113.999 26.084C114.083 26.084 114.195 26.0793 114.335 26.07C114.475 26.0607 114.601 26.042 114.713 26.014V25.062C114.638 25.0713 114.549 25.0807 114.447 25.09C114.344 25.0993 114.255 25.104 114.181 25.104C113.714 25.104 113.392 24.9827 113.215 24.74C113.037 24.4973 112.949 24.1893 112.949 23.816V19.546H114.601V18.496H112.949V16.76H111.899V17.39C111.899 17.7073 111.805 17.9733 111.619 18.188C111.432 18.3933 111.18 18.496 110.863 18.496H110.513V19.546H111.899V23.816C111.899 24.544 112.081 25.104 112.445 25.496C112.809 25.888 113.327 26.084 113.999 26.084ZM118.59 26.168C119.168 26.168 119.691 26.0513 120.158 25.818C120.624 25.5847 120.979 25.286 121.222 24.922V26H122.272V20.848C122.272 20.3533 122.15 19.9193 121.908 19.546C121.674 19.1633 121.343 18.8647 120.914 18.65C120.494 18.4353 120.008 18.328 119.458 18.328C119.038 18.328 118.632 18.4073 118.24 18.566C117.848 18.7153 117.498 18.9207 117.19 19.182C116.891 19.4433 116.672 19.7327 116.532 20.05L117.484 20.568C117.652 20.204 117.908 19.91 118.254 19.686C118.599 19.4527 119 19.336 119.458 19.336C119.98 19.336 120.405 19.476 120.732 19.756C121.058 20.036 121.222 20.4 121.222 20.848V21.24L118.506 21.688C117.675 21.828 117.068 22.1127 116.686 22.542C116.303 22.9713 116.112 23.4753 116.112 24.054C116.112 24.4647 116.219 24.8287 116.434 25.146C116.648 25.4633 116.942 25.7153 117.316 25.902C117.689 26.0793 118.114 26.168 118.59 26.168ZM117.232 24.012C117.232 23.6667 117.348 23.368 117.582 23.116C117.824 22.864 118.216 22.6913 118.758 22.598L121.222 22.192V22.752C121.222 23.2093 121.114 23.6247 120.9 23.998C120.685 24.3713 120.386 24.67 120.004 24.894C119.621 25.1087 119.173 25.216 118.66 25.216C118.24 25.216 117.894 25.0993 117.624 24.866C117.362 24.6327 117.232 24.348 117.232 24.012ZM124.586 29.08C125.08 29.08 125.5 28.9773 125.846 28.772C126.191 28.576 126.476 28.3147 126.7 27.988C126.933 27.6613 127.124 27.316 127.274 26.952L130.704 18.482H129.542L127.092 24.684L124.642 18.482H123.508L126.504 26L126.238 26.644C126.004 27.1853 125.766 27.5493 125.524 27.736C125.281 27.932 124.931 28.03 124.474 28.03C124.324 28.03 124.175 28.016 124.026 27.988C123.886 27.9693 123.769 27.9553 123.676 27.946V28.926C123.825 28.982 123.974 29.0193 124.124 29.038C124.282 29.066 124.436 29.08 124.586 29.08ZM137.746 26.168C138.213 26.168 138.652 26.084 139.062 25.916C139.473 25.748 139.837 25.5193 140.154 25.23C140.472 24.9407 140.71 24.614 140.868 24.25L139.916 23.732C139.72 24.152 139.431 24.488 139.048 24.74C138.675 24.992 138.241 25.118 137.746 25.118C137.252 25.118 136.804 24.992 136.402 24.74C136.01 24.488 135.698 24.1473 135.464 23.718C135.24 23.2793 135.128 22.7893 135.128 22.248C135.128 21.6973 135.24 21.2073 135.464 20.778C135.698 20.3393 136.01 19.9987 136.402 19.756C136.804 19.504 137.252 19.378 137.746 19.378C138.241 19.378 138.68 19.504 139.062 19.756C139.445 20.008 139.73 20.3347 139.916 20.736L140.868 20.246C140.71 19.8727 140.472 19.546 140.154 19.266C139.837 18.9767 139.473 18.748 139.062 18.58C138.652 18.412 138.213 18.328 137.746 18.328C137.009 18.328 136.36 18.5007 135.8 18.846C135.24 19.182 134.802 19.644 134.484 20.232C134.167 20.82 134.008 21.4873 134.008 22.234C134.008 22.9807 134.167 23.6527 134.484 24.25C134.802 24.838 135.24 25.3047 135.8 25.65C136.36 25.9953 137.009 26.168 137.746 26.168ZM146.225 26.168C146.925 26.168 147.559 26 148.129 25.664C148.707 25.328 149.169 24.866 149.515 24.278C149.86 23.6807 150.033 22.9993 150.033 22.234C150.033 21.478 149.865 20.806 149.529 20.218C149.202 19.63 148.749 19.168 148.171 18.832C147.601 18.496 146.953 18.328 146.225 18.328C145.497 18.328 144.843 18.5007 144.265 18.846C143.695 19.182 143.243 19.644 142.907 20.232C142.571 20.82 142.403 21.4873 142.403 22.234C142.403 22.99 142.571 23.6667 142.907 24.264C143.252 24.852 143.714 25.3187 144.293 25.664C144.871 26 145.515 26.168 146.225 26.168ZM146.225 25.118C145.721 25.118 145.263 24.992 144.853 24.74C144.451 24.488 144.129 24.1427 143.887 23.704C143.644 23.2653 143.523 22.7753 143.523 22.234C143.523 21.6927 143.644 21.2073 143.887 20.778C144.129 20.3487 144.451 20.008 144.853 19.756C145.263 19.504 145.721 19.378 146.225 19.378C146.729 19.378 147.181 19.504 147.583 19.756C147.993 20.008 148.315 20.3487 148.549 20.778C148.791 21.2073 148.913 21.6927 148.913 22.234C148.913 22.7753 148.791 23.2653 148.549 23.704C148.315 24.1427 147.993 24.488 147.583 24.74C147.181 24.992 146.729 25.118 146.225 25.118ZM151.885 26H152.935V21.534C152.935 20.862 153.121 20.3347 153.495 19.952C153.868 19.5693 154.339 19.378 154.909 19.378C155.487 19.378 155.954 19.5693 156.309 19.952C156.673 20.3253 156.855 20.8527 156.855 21.534V26H157.905V21.128C157.905 20.596 157.779 20.12 157.527 19.7C157.284 19.2707 156.948 18.9347 156.519 18.692C156.099 18.4493 155.623 18.328 155.091 18.328C154.624 18.328 154.204 18.426 153.831 18.622C153.457 18.818 153.159 19.084 152.935 19.42V18.496H151.885V26ZM159.91 26H160.96V21.534C160.96 20.862 161.147 20.3347 161.52 19.952C161.893 19.5693 162.365 19.378 162.934 19.378C163.513 19.378 163.979 19.5693 164.334 19.952C164.698 20.3253 164.88 20.8527 164.88 21.534V26H165.93V21.128C165.93 20.596 165.804 20.12 165.552 19.7C165.309 19.2707 164.973 18.9347 164.544 18.692C164.124 18.4493 163.648 18.328 163.116 18.328C162.649 18.328 162.229 18.426 161.856 18.622C161.483 18.818 161.184 19.084 160.96 19.42V18.496H159.91V26ZM171.351 26.168C171.865 26.168 172.331 26.084 172.751 25.916C173.181 25.7387 173.549 25.51 173.857 25.23C174.165 24.9407 174.394 24.628 174.543 24.292L173.647 23.816C173.414 24.208 173.111 24.5347 172.737 24.796C172.364 25.0573 171.902 25.188 171.351 25.188C170.903 25.188 170.483 25.0807 170.091 24.866C169.699 24.6513 169.377 24.3527 169.125 23.97C168.883 23.578 168.752 23.1113 168.733 22.57H174.641C174.66 22.4487 174.674 22.332 174.683 22.22C174.693 22.0987 174.697 21.9913 174.697 21.898C174.697 21.45 174.618 21.016 174.459 20.596C174.301 20.1667 174.072 19.784 173.773 19.448C173.475 19.1027 173.111 18.832 172.681 18.636C172.261 18.4307 171.781 18.328 171.239 18.328C170.558 18.328 169.942 18.496 169.391 18.832C168.85 19.168 168.421 19.63 168.103 20.218C167.786 20.7967 167.627 21.464 167.627 22.22C167.627 22.976 167.791 23.6527 168.117 24.25C168.444 24.8473 168.887 25.3187 169.447 25.664C170.017 26 170.651 26.168 171.351 26.168ZM171.239 19.308C171.659 19.308 172.042 19.406 172.387 19.602C172.742 19.798 173.022 20.0687 173.227 20.414C173.442 20.75 173.554 21.142 173.563 21.59H168.761C168.817 21.1233 168.962 20.722 169.195 20.386C169.438 20.0407 169.737 19.7747 170.091 19.588C170.446 19.4013 170.829 19.308 171.239 19.308ZM179.979 26.168C180.445 26.168 180.884 26.084 181.295 25.916C181.705 25.748 182.069 25.5193 182.387 25.23C182.704 24.9407 182.942 24.614 183.101 24.25L182.149 23.732C181.953 24.152 181.663 24.488 181.281 24.74C180.907 24.992 180.473 25.118 179.979 25.118C179.484 25.118 179.036 24.992 178.635 24.74C178.243 24.488 177.93 24.1473 177.697 23.718C177.473 23.2793 177.361 22.7893 177.361 22.248C177.361 21.6973 177.473 21.2073 177.697 20.778C177.93 20.3393 178.243 19.9987 178.635 19.756C179.036 19.504 179.484 19.378 179.979 19.378C180.473 19.378 180.912 19.504 181.295 19.756C181.677 20.008 181.962 20.3347 182.149 20.736L183.101 20.246C182.942 19.8727 182.704 19.546 182.387 19.266C182.069 18.9767 181.705 18.748 181.295 18.58C180.884 18.412 180.445 18.328 179.979 18.328C179.241 18.328 178.593 18.5007 178.033 18.846C177.473 19.182 177.034 19.644 176.717 20.232C176.399 20.82 176.241 21.4873 176.241 22.234C176.241 22.9807 176.399 23.6527 176.717 24.25C177.034 24.838 177.473 25.3047 178.033 25.65C178.593 25.9953 179.241 26.168 179.979 26.168ZM187.813 26.084C187.897 26.084 188.009 26.0793 188.149 26.07C188.289 26.0607 188.415 26.042 188.527 26.014V25.062C188.453 25.0713 188.364 25.0807 188.261 25.09C188.159 25.0993 188.07 25.104 187.995 25.104C187.529 25.104 187.207 24.9827 187.029 24.74C186.852 24.4973 186.763 24.1893 186.763 23.816V19.546H188.415V18.496H186.763V16.76H185.713V17.39C185.713 17.7073 185.62 17.9733 185.433 18.188C185.247 18.3933 184.995 18.496 184.677 18.496H184.327V19.546H185.713V23.816C185.713 24.544 185.895 25.104 186.259 25.496C186.623 25.888 187.141 26.084 187.813 26.084ZM193.514 26.168C194.027 26.168 194.494 26.084 194.914 25.916C195.343 25.7387 195.712 25.51 196.02 25.23C196.328 24.9407 196.556 24.628 196.706 24.292L195.81 23.816C195.576 24.208 195.273 24.5347 194.9 24.796C194.526 25.0573 194.064 25.188 193.514 25.188C193.066 25.188 192.646 25.0807 192.254 24.866C191.862 24.6513 191.54 24.3527 191.288 23.97C191.045 23.578 190.914 23.1113 190.896 22.57H196.804C196.822 22.4487 196.836 22.332 196.846 22.22C196.855 22.0987 196.86 21.9913 196.86 21.898C196.86 21.45 196.78 21.016 196.622 20.596C196.463 20.1667 196.234 19.784 195.936 19.448C195.637 19.1027 195.273 18.832 194.844 18.636C194.424 18.4307 193.943 18.328 193.402 18.328C192.72 18.328 192.104 18.496 191.554 18.832C191.012 19.168 190.583 19.63 190.266 20.218C189.948 20.7967 189.79 21.464 189.79 22.22C189.79 22.976 189.953 23.6527 190.28 24.25C190.606 24.8473 191.05 25.3187 191.61 25.664C192.179 26 192.814 26.168 193.514 26.168ZM193.402 19.308C193.822 19.308 194.204 19.406 194.55 19.602C194.904 19.798 195.184 20.0687 195.39 20.414C195.604 20.75 195.716 21.142 195.726 21.59H190.924C190.98 21.1233 191.124 20.722 191.358 20.386C191.6 20.0407 191.899 19.7747 192.254 19.588C192.608 19.4013 192.991 19.308 193.402 19.308ZM202.099 26.168C202.677 26.168 203.209 26.0467 203.695 25.804C204.18 25.5613 204.563 25.2207 204.843 24.782V26H205.893V15.402H204.843V19.63C204.535 19.2287 204.147 18.9113 203.681 18.678C203.214 18.4447 202.687 18.328 202.099 18.328C201.389 18.328 200.755 18.5007 200.195 18.846C199.644 19.182 199.205 19.644 198.879 20.232C198.561 20.82 198.403 21.492 198.403 22.248C198.403 22.9947 198.561 23.6667 198.879 24.264C199.205 24.852 199.649 25.3187 200.209 25.664C200.769 26 201.399 26.168 202.099 26.168ZM202.155 25.118C201.651 25.118 201.198 24.992 200.797 24.74C200.405 24.488 200.092 24.1473 199.859 23.718C199.635 23.2793 199.523 22.7893 199.523 22.248C199.523 21.6973 199.635 21.2073 199.859 20.778C200.092 20.3487 200.409 20.008 200.811 19.756C201.212 19.504 201.66 19.378 202.155 19.378C202.659 19.378 203.111 19.504 203.513 19.756C203.923 20.008 204.245 20.3533 204.479 20.792C204.721 21.2213 204.843 21.7067 204.843 22.248C204.843 22.7893 204.721 23.2793 204.479 23.718C204.245 24.1473 203.923 24.488 203.513 24.74C203.111 24.992 202.659 25.118 202.155 25.118ZM213.298 26.084C213.382 26.084 213.494 26.0793 213.634 26.07C213.774 26.0607 213.9 26.042 214.012 26.014V25.062C213.937 25.0713 213.848 25.0807 213.746 25.09C213.643 25.0993 213.554 25.104 213.48 25.104C213.013 25.104 212.691 24.9827 212.514 24.74C212.336 24.4973 212.248 24.1893 212.248 23.816V19.546H213.9V18.496H212.248V16.76H211.198V17.39C211.198 17.7073 211.104 17.9733 210.918 18.188C210.731 18.3933 210.479 18.496 210.162 18.496H209.812V19.546H211.198V23.816C211.198 24.544 211.38 25.104 211.744 25.496C212.108 25.888 212.626 26.084 213.298 26.084ZM219.096 26.168C219.796 26.168 220.431 26 221 25.664C221.579 25.328 222.041 24.866 222.386 24.278C222.731 23.6807 222.904 22.9993 222.904 22.234C222.904 21.478 222.736 20.806 222.4 20.218C222.073 19.63 221.621 19.168 221.042 18.832C220.473 18.496 219.824 18.328 219.096 18.328C218.368 18.328 217.715 18.5007 217.136 18.846C216.567 19.182 216.114 19.644 215.778 20.232C215.442 20.82 215.274 21.4873 215.274 22.234C215.274 22.99 215.442 23.6667 215.778 24.264C216.123 24.852 216.585 25.3187 217.164 25.664C217.743 26 218.387 26.168 219.096 26.168ZM219.096 25.118C218.592 25.118 218.135 24.992 217.724 24.74C217.323 24.488 217.001 24.1427 216.758 23.704C216.515 23.2653 216.394 22.7753 216.394 22.234C216.394 21.6927 216.515 21.2073 216.758 20.778C217.001 20.3487 217.323 20.008 217.724 19.756C218.135 19.504 218.592 19.378 219.096 19.378C219.6 19.378 220.053 19.504 220.454 19.756C220.865 20.008 221.187 20.3487 221.42 20.778C221.663 21.2073 221.784 21.6927 221.784 22.234C221.784 22.7753 221.663 23.2653 221.42 23.704C221.187 24.1427 220.865 24.488 220.454 24.74C220.053 24.992 219.6 25.118 219.096 25.118ZM230.005 26.084C230.089 26.084 230.201 26.0793 230.341 26.07C230.481 26.0607 230.607 26.042 230.719 26.014V25.062C230.644 25.0713 230.555 25.0807 230.453 25.09C230.35 25.0993 230.261 25.104 230.187 25.104C229.72 25.104 229.398 24.9827 229.221 24.74C229.043 24.4973 228.955 24.1893 228.955 23.816V19.546H230.607V18.496H228.955V16.76H227.905V17.39C227.905 17.7073 227.811 17.9733 227.625 18.188C227.438 18.3933 227.186 18.496 226.869 18.496H226.519V19.546H227.905V23.816C227.905 24.544 228.087 25.104 228.451 25.496C228.815 25.888 229.333 26.084 230.005 26.084ZM232.562 26H233.612V21.534C233.612 20.862 233.799 20.3347 234.172 19.952C234.555 19.5693 235.026 19.378 235.586 19.378C236.146 19.378 236.608 19.5693 236.972 19.952C237.346 20.3253 237.532 20.8527 237.532 21.534V26H238.582V21.128C238.582 20.596 238.456 20.12 238.204 19.7C237.962 19.2707 237.626 18.9347 237.196 18.692C236.776 18.4493 236.3 18.328 235.768 18.328C235.302 18.328 234.882 18.426 234.508 18.622C234.135 18.818 233.836 19.084 233.612 19.42V15.402H232.562V26ZM244.004 26.168C244.517 26.168 244.984 26.084 245.404 25.916C245.833 25.7387 246.202 25.51 246.51 25.23C246.818 24.9407 247.046 24.628 247.196 24.292L246.3 23.816C246.066 24.208 245.763 24.5347 245.39 24.796C245.016 25.0573 244.554 25.188 244.004 25.188C243.556 25.188 243.136 25.0807 242.744 24.866C242.352 24.6513 242.03 24.3527 241.778 23.97C241.535 23.578 241.404 23.1113 241.386 22.57H247.294C247.312 22.4487 247.326 22.332 247.336 22.22C247.345 22.0987 247.35 21.9913 247.35 21.898C247.35 21.45 247.27 21.016 247.112 20.596C246.953 20.1667 246.724 19.784 246.426 19.448C246.127 19.1027 245.763 18.832 245.334 18.636C244.914 18.4307 244.433 18.328 243.892 18.328C243.21 18.328 242.594 18.496 242.044 18.832C241.502 19.168 241.073 19.63 240.756 20.218C240.438 20.7967 240.28 21.464 240.28 22.22C240.28 22.976 240.443 23.6527 240.77 24.25C241.096 24.8473 241.54 25.3187 242.1 25.664C242.669 26 243.304 26.168 244.004 26.168ZM243.892 19.308C244.312 19.308 244.694 19.406 245.04 19.602C245.394 19.798 245.674 20.0687 245.88 20.414C246.094 20.75 246.206 21.142 246.216 21.59H241.414C241.47 21.1233 241.614 20.722 241.848 20.386C242.09 20.0407 242.389 19.7747 242.744 19.588C243.098 19.4013 243.481 19.308 243.892 19.308ZM254.24 26.168C254.707 26.168 255.127 26.07 255.5 25.874C255.873 25.678 256.172 25.412 256.396 25.076V26H257.446V18.496H256.396V22.962C256.396 23.634 256.209 24.1613 255.836 24.544C255.472 24.9267 255.001 25.118 254.422 25.118C253.853 25.118 253.386 24.936 253.022 24.572C252.658 24.1987 252.476 23.7087 252.476 23.102V18.496H251.426V23.228C251.426 23.8067 251.547 24.32 251.79 24.768C252.042 25.2067 252.383 25.552 252.812 25.804C253.241 26.0467 253.717 26.168 254.24 26.168ZM259.605 28.8H260.655V24.782C260.935 25.2207 261.318 25.5613 261.803 25.804C262.289 26.0467 262.821 26.168 263.399 26.168C264.109 26.168 264.739 26 265.289 25.664C265.849 25.3187 266.288 24.852 266.605 24.264C266.932 23.6667 267.095 22.9947 267.095 22.248C267.095 21.492 266.932 20.82 266.605 20.232C266.288 19.644 265.849 19.182 265.289 18.846C264.739 18.5007 264.109 18.328 263.399 18.328C262.811 18.328 262.284 18.4447 261.817 18.678C261.351 18.9113 260.963 19.2287 260.655 19.63V18.496H259.605V28.8ZM263.343 25.118C262.839 25.118 262.382 24.992 261.971 24.74C261.57 24.488 261.248 24.1473 261.005 23.718C260.772 23.2793 260.655 22.7893 260.655 22.248C260.655 21.7067 260.772 21.2213 261.005 20.792C261.248 20.3533 261.57 20.008 261.971 19.756C262.382 19.504 262.839 19.378 263.343 19.378C263.847 19.378 264.295 19.504 264.687 19.756C265.089 20.008 265.401 20.3487 265.625 20.778C265.859 21.2073 265.975 21.6973 265.975 22.248C265.975 22.7893 265.859 23.2793 265.625 23.718C265.401 24.1473 265.089 24.488 264.687 24.74C264.295 24.992 263.847 25.118 263.343 25.118ZM272.373 26.168C272.84 26.168 273.279 26.084 273.689 25.916C274.1 25.748 274.464 25.5193 274.781 25.23C275.099 24.9407 275.337 24.614 275.495 24.25L274.543 23.732C274.347 24.152 274.058 24.488 273.675 24.74C273.302 24.992 272.868 25.118 272.373 25.118C271.879 25.118 271.431 24.992 271.029 24.74C270.637 24.488 270.325 24.1473 270.091 23.718C269.867 23.2793 269.755 22.7893 269.755 22.248C269.755 21.6973 269.867 21.2073 270.091 20.778C270.325 20.3393 270.637 19.9987 271.029 19.756C271.431 19.504 271.879 19.378 272.373 19.378C272.868 19.378 273.307 19.504 273.689 19.756C274.072 20.008 274.357 20.3347 274.543 20.736L275.495 20.246C275.337 19.8727 275.099 19.546 274.781 19.266C274.464 18.9767 274.1 18.748 273.689 18.58C273.279 18.412 272.84 18.328 272.373 18.328C271.636 18.328 270.987 18.5007 270.427 18.846C269.867 19.182 269.429 19.644 269.111 20.232C268.794 20.82 268.635 21.4873 268.635 22.234C268.635 22.9807 268.794 23.6527 269.111 24.25C269.429 24.838 269.867 25.3047 270.427 25.65C270.987 25.9953 271.636 26.168 272.373 26.168ZM280.852 26.168C281.552 26.168 282.186 26 282.756 25.664C283.334 25.328 283.796 24.866 284.142 24.278C284.487 23.6807 284.66 22.9993 284.66 22.234C284.66 21.478 284.492 20.806 284.156 20.218C283.829 19.63 283.376 19.168 282.798 18.832C282.228 18.496 281.58 18.328 280.852 18.328C280.124 18.328 279.47 18.5007 278.892 18.846C278.322 19.182 277.87 19.644 277.534 20.232C277.198 20.82 277.03 21.4873 277.03 22.234C277.03 22.99 277.198 23.6667 277.534 24.264C277.879 24.852 278.341 25.3187 278.92 25.664C279.498 26 280.142 26.168 280.852 26.168ZM280.852 25.118C280.348 25.118 279.89 24.992 279.48 24.74C279.078 24.488 278.756 24.1427 278.514 23.704C278.271 23.2653 278.15 22.7753 278.15 22.234C278.15 21.6927 278.271 21.2073 278.514 20.778C278.756 20.3487 279.078 20.008 279.48 19.756C279.89 19.504 280.348 19.378 280.852 19.378C281.356 19.378 281.808 19.504 282.21 19.756C282.62 20.008 282.942 20.3487 283.176 20.778C283.418 21.2073 283.54 21.6927 283.54 22.234C283.54 22.7753 283.418 23.2653 283.176 23.704C282.942 24.1427 282.62 24.488 282.21 24.74C281.808 24.992 281.356 25.118 280.852 25.118ZM286.512 26H287.562V21.534C287.562 20.862 287.744 20.3347 288.108 19.952C288.472 19.5693 288.924 19.378 289.466 19.378C290.007 19.378 290.455 19.5693 290.81 19.952C291.164 20.3253 291.342 20.8527 291.342 21.534V26H292.392V21.534C292.392 20.862 292.574 20.3347 292.938 19.952C293.302 19.5693 293.754 19.378 294.296 19.378C294.837 19.378 295.285 19.5693 295.64 19.952C295.994 20.3253 296.172 20.8527 296.172 21.534V26H297.222V21.128C297.222 20.596 297.091 20.12 296.83 19.7C296.578 19.2707 296.237 18.9347 295.808 18.692C295.388 18.4493 294.926 18.328 294.422 18.328C293.918 18.328 293.451 18.4493 293.022 18.692C292.602 18.9347 292.28 19.2893 292.056 19.756C291.822 19.3267 291.491 18.9813 291.062 18.72C290.632 18.4587 290.161 18.328 289.648 18.328C289.218 18.328 288.817 18.426 288.444 18.622C288.08 18.8087 287.786 19.0747 287.562 19.42V18.496H286.512V26ZM299.226 17.11H300.276V15.57H299.226V17.11ZM299.226 26H300.276V18.496H299.226V26ZM302.426 26H303.476V21.534C303.476 20.862 303.662 20.3347 304.036 19.952C304.409 19.5693 304.88 19.378 305.45 19.378C306.028 19.378 306.495 19.5693 306.85 19.952C307.214 20.3253 307.396 20.8527 307.396 21.534V26H308.446V21.128C308.446 20.596 308.32 20.12 308.068 19.7C307.825 19.2707 307.489 18.9347 307.06 18.692C306.64 18.4493 306.164 18.328 305.632 18.328C305.165 18.328 304.745 18.426 304.372 18.622C303.998 18.818 303.7 19.084 303.476 19.42V18.496H302.426V26ZM314.007 29.08C314.698 29.08 315.309 28.9307 315.841 28.632C316.382 28.3427 316.802 27.9413 317.101 27.428C317.409 26.924 317.563 26.35 317.563 25.706V18.496H316.513V19.63C316.214 19.2287 315.832 18.9113 315.365 18.678C314.898 18.4447 314.39 18.328 313.839 18.328C313.13 18.328 312.495 18.496 311.935 18.832C311.384 19.168 310.946 19.6207 310.619 20.19C310.302 20.7593 310.143 21.3987 310.143 22.108C310.143 22.808 310.302 23.4473 310.619 24.026C310.946 24.5953 311.389 25.048 311.949 25.384C312.509 25.72 313.139 25.888 313.839 25.888C314.39 25.888 314.903 25.7667 315.379 25.524C315.855 25.2813 316.233 24.9407 316.513 24.502V25.706C316.513 26.21 316.396 26.6347 316.163 26.98C315.93 27.3253 315.622 27.5867 315.239 27.764C314.856 27.9413 314.436 28.03 313.979 28.03C313.382 28.03 312.892 27.8993 312.509 27.638C312.126 27.3767 311.86 27.0687 311.711 26.714L310.745 27.232C310.997 27.7733 311.408 28.2167 311.977 28.562C312.556 28.9073 313.232 29.08 314.007 29.08ZM313.895 24.838C313.391 24.838 312.938 24.7167 312.537 24.474C312.145 24.222 311.832 23.8907 311.599 23.48C311.375 23.06 311.263 22.6027 311.263 22.108C311.263 21.604 311.375 21.1467 311.599 20.736C311.832 20.3253 312.15 19.9987 312.551 19.756C312.952 19.504 313.4 19.378 313.895 19.378C314.38 19.378 314.819 19.504 315.211 19.756C315.603 19.9987 315.916 20.33 316.149 20.75C316.392 21.1607 316.513 21.6133 316.513 22.108C316.513 22.6027 316.392 23.06 316.149 23.48C315.916 23.8907 315.603 24.222 315.211 24.474C314.819 24.7167 314.38 24.838 313.895 24.838ZM324.717 26.168C325.221 26.168 325.665 26.0887 326.047 25.93C326.43 25.762 326.766 25.552 327.055 25.3C327.345 25.048 327.597 24.7867 327.811 24.516L329.253 26H330.751L328.455 23.592L330.261 20.834H328.987L327.685 22.78L325.627 20.624C325.87 20.4747 326.141 20.274 326.439 20.022C326.747 19.77 327.013 19.462 327.237 19.098C327.471 18.734 327.587 18.3047 327.587 17.81C327.587 17.3433 327.475 16.928 327.251 16.564C327.027 16.2 326.729 15.9153 326.355 15.71C325.982 15.5047 325.571 15.402 325.123 15.402C324.666 15.402 324.246 15.5093 323.863 15.724C323.49 15.9293 323.191 16.2187 322.967 16.592C322.743 16.956 322.631 17.3807 322.631 17.866C322.631 18.4167 322.767 18.9113 323.037 19.35C323.317 19.7793 323.611 20.162 323.919 20.498L323.891 20.512C323.761 20.596 323.579 20.7173 323.345 20.876C323.121 21.0347 322.888 21.24 322.645 21.492C322.412 21.7347 322.211 22.0287 322.043 22.374C321.885 22.7193 321.805 23.116 321.805 23.564C321.805 24.0867 321.931 24.544 322.183 24.936C322.435 25.328 322.781 25.6313 323.219 25.846C323.658 26.0607 324.157 26.168 324.717 26.168ZM323.751 17.824C323.751 17.4227 323.877 17.0913 324.129 16.83C324.391 16.5687 324.722 16.438 325.123 16.438C325.515 16.438 325.842 16.5687 326.103 16.83C326.365 17.0913 326.495 17.418 326.495 17.81C326.495 18.1367 326.411 18.4307 326.243 18.692C326.075 18.9533 325.865 19.182 325.613 19.378C325.371 19.574 325.137 19.742 324.913 19.882C324.624 19.574 324.358 19.252 324.115 18.916C323.873 18.5707 323.751 18.2067 323.751 17.824ZM322.995 23.536C322.995 23.1253 323.089 22.7753 323.275 22.486C323.462 22.1967 323.681 21.954 323.933 21.758C324.185 21.5527 324.405 21.394 324.591 21.282L324.647 21.24L327.041 23.718C326.771 24.0913 326.458 24.4227 326.103 24.712C325.758 24.992 325.305 25.132 324.745 25.132C324.232 25.132 323.812 24.992 323.485 24.712C323.159 24.432 322.995 24.04 322.995 23.536ZM334.914 26H336.034V21.94H338.582L340.878 26H342.194L339.758 21.758C340.42 21.5433 340.943 21.1747 341.326 20.652C341.718 20.1293 341.914 19.4993 341.914 18.762C341.914 18.1273 341.769 17.572 341.48 17.096C341.2 16.6107 340.803 16.2373 340.29 15.976C339.776 15.7053 339.179 15.57 338.498 15.57H334.914V26ZM336.034 20.89V16.62H338.554C339.226 16.62 339.767 16.8113 340.178 17.194C340.588 17.5673 340.794 18.0853 340.794 18.748C340.794 19.4107 340.588 19.9333 340.178 20.316C339.767 20.6987 339.226 20.89 338.554 20.89H336.034ZM346.721 26.168C347.234 26.168 347.701 26.084 348.121 25.916C348.55 25.7387 348.919 25.51 349.227 25.23C349.535 24.9407 349.763 24.628 349.913 24.292L349.017 23.816C348.783 24.208 348.48 24.5347 348.107 24.796C347.733 25.0573 347.271 25.188 346.721 25.188C346.273 25.188 345.853 25.0807 345.461 24.866C345.069 24.6513 344.747 24.3527 344.495 23.97C344.252 23.578 344.121 23.1113 344.103 22.57H350.011C350.029 22.4487 350.043 22.332 350.053 22.22C350.062 22.0987 350.067 21.9913 350.067 21.898C350.067 21.45 349.987 21.016 349.829 20.596C349.67 20.1667 349.441 19.784 349.143 19.448C348.844 19.1027 348.48 18.832 348.051 18.636C347.631 18.4307 347.15 18.328 346.609 18.328C345.927 18.328 345.311 18.496 344.761 18.832C344.219 19.168 343.79 19.63 343.473 20.218C343.155 20.7967 342.997 21.464 342.997 22.22C342.997 22.976 343.16 23.6527 343.487 24.25C343.813 24.8473 344.257 25.3187 344.817 25.664C345.386 26 346.021 26.168 346.721 26.168ZM346.609 19.308C347.029 19.308 347.411 19.406 347.757 19.602C348.111 19.798 348.391 20.0687 348.597 20.414C348.811 20.75 348.923 21.142 348.933 21.59H344.131C344.187 21.1233 344.331 20.722 344.565 20.386C344.807 20.0407 345.106 19.7747 345.461 19.588C345.815 19.4013 346.198 19.308 346.609 19.308ZM355.348 26.168C355.815 26.168 356.253 26.084 356.664 25.916C357.075 25.748 357.439 25.5193 357.756 25.23C358.073 24.9407 358.311 24.614 358.47 24.25L357.518 23.732C357.322 24.152 357.033 24.488 356.65 24.74C356.277 24.992 355.843 25.118 355.348 25.118C354.853 25.118 354.405 24.992 354.004 24.74C353.612 24.488 353.299 24.1473 353.066 23.718C352.842 23.2793 352.73 22.7893 352.73 22.248C352.73 21.6973 352.842 21.2073 353.066 20.778C353.299 20.3393 353.612 19.9987 354.004 19.756C354.405 19.504 354.853 19.378 355.348 19.378C355.843 19.378 356.281 19.504 356.664 19.756C357.047 20.008 357.331 20.3347 357.518 20.736L358.47 20.246C358.311 19.8727 358.073 19.546 357.756 19.266C357.439 18.9767 357.075 18.748 356.664 18.58C356.253 18.412 355.815 18.328 355.348 18.328C354.611 18.328 353.962 18.5007 353.402 18.846C352.842 19.182 352.403 19.644 352.086 20.232C351.769 20.82 351.61 21.4873 351.61 22.234C351.61 22.9807 351.769 23.6527 352.086 24.25C352.403 24.838 352.842 25.3047 353.402 25.65C353.962 25.9953 354.611 26.168 355.348 26.168ZM363.728 26.168C364.242 26.168 364.708 26.084 365.128 25.916C365.558 25.7387 365.926 25.51 366.234 25.23C366.542 24.9407 366.771 24.628 366.92 24.292L366.024 23.816C365.791 24.208 365.488 24.5347 365.114 24.796C364.741 25.0573 364.279 25.188 363.728 25.188C363.28 25.188 362.86 25.0807 362.468 24.866C362.076 24.6513 361.754 24.3527 361.502 23.97C361.26 23.578 361.129 23.1113 361.11 22.57H367.018C367.037 22.4487 367.051 22.332 367.06 22.22C367.07 22.0987 367.074 21.9913 367.074 21.898C367.074 21.45 366.995 21.016 366.836 20.596C366.678 20.1667 366.449 19.784 366.15 19.448C365.852 19.1027 365.488 18.832 365.058 18.636C364.638 18.4307 364.158 18.328 363.616 18.328C362.935 18.328 362.319 18.496 361.768 18.832C361.227 19.168 360.798 19.63 360.48 20.218C360.163 20.7967 360.004 21.464 360.004 22.22C360.004 22.976 360.168 23.6527 360.494 24.25C360.821 24.8473 361.264 25.3187 361.824 25.664C362.394 26 363.028 26.168 363.728 26.168ZM363.616 19.308C364.036 19.308 364.419 19.406 364.764 19.602C365.119 19.798 365.399 20.0687 365.604 20.414C365.819 20.75 365.931 21.142 365.94 21.59H361.138C361.194 21.1233 361.339 20.722 361.572 20.386C361.815 20.0407 362.114 19.7747 362.468 19.588C362.823 19.4013 363.206 19.308 363.616 19.308ZM368.926 26H369.976V21.534C369.976 20.862 370.162 20.3347 370.536 19.952C370.909 19.5693 371.38 19.378 371.95 19.378C372.528 19.378 372.995 19.5693 373.35 19.952C373.714 20.3253 373.896 20.8527 373.896 21.534V26H374.946V21.128C374.946 20.596 374.82 20.12 374.568 19.7C374.325 19.2707 373.989 18.9347 373.56 18.692C373.14 18.4493 372.664 18.328 372.132 18.328C371.665 18.328 371.245 18.426 370.872 18.622C370.498 18.818 370.2 19.084 369.976 19.42V18.496H368.926V26ZM379.821 26.084C379.905 26.084 380.017 26.0793 380.157 26.07C380.297 26.0607 380.423 26.042 380.535 26.014V25.062C380.46 25.0713 380.372 25.0807 380.269 25.09C380.166 25.0993 380.078 25.104 380.003 25.104C379.536 25.104 379.214 24.9827 379.037 24.74C378.86 24.4973 378.771 24.1893 378.771 23.816V19.546H380.423V18.496H378.771V16.76H377.721V17.39C377.721 17.7073 377.628 17.9733 377.441 18.188C377.254 18.3933 377.002 18.496 376.685 18.496H376.335V19.546H377.721V23.816C377.721 24.544 377.903 25.104 378.267 25.496C378.631 25.888 379.149 26.084 379.821 26.084ZM384.758 17.11H385.808V15.57H384.758V17.11ZM383.358 29.08C383.806 29.08 384.212 28.9867 384.576 28.8C384.949 28.6227 385.248 28.3567 385.472 28.002C385.696 27.6473 385.808 27.2133 385.808 26.7V18.496H384.758V26.7C384.758 27.1667 384.622 27.5167 384.352 27.75C384.09 27.9833 383.768 28.1 383.386 28.1C383.19 28.1 382.994 28.086 382.798 28.058V29.024C382.872 29.0427 382.97 29.0567 383.092 29.066C383.204 29.0753 383.292 29.08 383.358 29.08ZM391.471 26.168C392.171 26.168 392.806 26 393.375 25.664C393.954 25.328 394.416 24.866 394.761 24.278C395.106 23.6807 395.279 22.9993 395.279 22.234C395.279 21.478 395.111 20.806 394.775 20.218C394.448 19.63 393.996 19.168 393.417 18.832C392.848 18.496 392.199 18.328 391.471 18.328C390.743 18.328 390.09 18.5007 389.511 18.846C388.942 19.182 388.489 19.644 388.153 20.232C387.817 20.82 387.649 21.4873 387.649 22.234C387.649 22.99 387.817 23.6667 388.153 24.264C388.498 24.852 388.96 25.3187 389.539 25.664C390.118 26 390.762 26.168 391.471 26.168ZM391.471 25.118C390.967 25.118 390.51 24.992 390.099 24.74C389.698 24.488 389.376 24.1427 389.133 23.704C388.89 23.2653 388.769 22.7753 388.769 22.234C388.769 21.6927 388.89 21.2073 389.133 20.778C389.376 20.3487 389.698 20.008 390.099 19.756C390.51 19.504 390.967 19.378 391.471 19.378C391.975 19.378 392.428 19.504 392.829 19.756C393.24 20.008 393.562 20.3487 393.795 20.778C394.038 21.2073 394.159 21.6927 394.159 22.234C394.159 22.7753 394.038 23.2653 393.795 23.704C393.562 24.1427 393.24 24.488 392.829 24.74C392.428 24.992 391.975 25.118 391.471 25.118ZM400.925 26.168C401.634 26.168 402.264 26 402.815 25.664C403.375 25.3187 403.813 24.852 404.131 24.264C404.457 23.6667 404.621 22.9947 404.621 22.248C404.621 21.492 404.457 20.82 404.131 20.232C403.813 19.644 403.375 19.182 402.815 18.846C402.264 18.5007 401.634 18.328 400.925 18.328C400.337 18.328 399.809 18.4447 399.343 18.678C398.876 18.9113 398.489 19.2287 398.181 19.63V15.402H397.131V26H398.181V24.782C398.461 25.2207 398.843 25.5613 399.329 25.804C399.814 26.0467 400.346 26.168 400.925 26.168ZM400.869 25.118C400.365 25.118 399.907 24.992 399.497 24.74C399.095 24.488 398.773 24.1473 398.531 23.718C398.297 23.2793 398.181 22.7893 398.181 22.248C398.181 21.7067 398.297 21.2213 398.531 20.792C398.773 20.3533 399.095 20.008 399.497 19.756C399.907 19.504 400.365 19.378 400.869 19.378C401.373 19.378 401.821 19.504 402.213 19.756C402.614 20.008 402.927 20.3487 403.151 20.778C403.384 21.2073 403.501 21.6973 403.501 22.248C403.501 22.7893 403.384 23.2793 403.151 23.718C402.927 24.1473 402.614 24.488 402.213 24.74C401.821 24.992 401.373 25.118 400.869 25.118ZM409.073 26.168C409.595 26.168 410.057 26.0793 410.459 25.902C410.86 25.7153 411.173 25.4587 411.397 25.132C411.63 24.8053 411.747 24.4367 411.747 24.026C411.747 23.522 411.574 23.0833 411.229 22.71C410.893 22.3367 410.421 22.0613 409.815 21.884L408.569 21.52C408.438 21.4827 408.284 21.4267 408.107 21.352C407.939 21.2773 407.789 21.1653 407.659 21.016C407.528 20.8667 407.463 20.666 407.463 20.414C407.463 20.0873 407.589 19.8167 407.841 19.602C408.093 19.3873 408.429 19.28 408.849 19.28C409.278 19.28 409.665 19.4013 410.011 19.644C410.365 19.8773 410.636 20.204 410.823 20.624L411.719 20.204C411.504 19.616 411.135 19.1587 410.613 18.832C410.099 18.496 409.525 18.328 408.891 18.328C408.424 18.328 407.999 18.4167 407.617 18.594C407.234 18.7713 406.931 19.0233 406.707 19.35C406.483 19.6767 406.371 20.0593 406.371 20.498C406.371 20.9647 406.525 21.3753 406.833 21.73C407.141 22.0847 407.64 22.36 408.331 22.556L409.409 22.864C409.558 22.9013 409.731 22.962 409.927 23.046C410.123 23.13 410.295 23.2513 410.445 23.41C410.594 23.5593 410.669 23.7647 410.669 24.026C410.669 24.3807 410.515 24.67 410.207 24.894C409.899 25.1087 409.521 25.216 409.073 25.216C408.606 25.216 408.177 25.0807 407.785 24.81C407.402 24.5393 407.103 24.1753 406.889 23.718L406.007 24.138C406.249 24.7633 406.641 25.258 407.183 25.622C407.724 25.986 408.354 26.168 409.073 26.168Z" fill="#193E6C"/>
</svg>
