<svg width="540" height="153" viewBox="0 0 540 153" fill="none" xmlns="http://www.w3.org/2000/svg">
<g clip-path="url(#clip0_17_374)">
<path d="M25.7996 84.8443C25.6584 84.5031 25.526 84.1443 25.3849 83.8381L24.7319 82.3768L24.7054 82.3506C22.7643 78.1506 20.6907 73.8806 18.4937 69.6806L18.4054 69.5056C18.1849 69.0943 17.9643 68.6393 17.7349 68.2193C17.4525 67.7206 17.179 67.1868 16.729 66.6793C16.2903 66.1483 15.7383 65.7205 15.1127 65.4267C14.4871 65.133 13.8035 64.9806 13.1113 64.9806C12.4191 64.9806 11.7356 65.133 11.11 65.4267C10.4844 65.7205 9.93232 66.1483 9.49368 66.6793C9.07898 67.1868 8.77015 67.7206 8.4878 68.2193C8.26721 68.6743 8.04663 69.1206 7.81721 69.5318L7.72898 69.7068C5.56721 73.9068 3.45839 78.1768 1.51721 82.3768L1.46427 82.4293C1.27016 82.8843 1.04074 83.3568 0.820155 83.8643C0.678979 84.1706 0.537802 84.5031 0.396626 84.8706C0.0154782 85.8329 -0.106234 86.8771 0.0434838 87.9003C0.193202 88.9234 0.609183 89.8902 1.25043 90.7054C1.89168 91.5206 2.73606 92.1561 3.70035 92.5491C4.66465 92.9421 5.71558 93.0792 6.74957 92.9468C7.74086 92.8174 8.6954 92.49 9.55545 91.9843C10.7025 91.3456 11.8054 90.4181 13.0407 89.0793C14.276 90.4181 15.4054 91.3456 16.526 91.9931C17.6037 92.6203 18.824 92.9665 20.0731 92.9993C21.5196 93.0053 22.9194 92.4921 24.0141 91.5545C25.1088 90.6168 25.8245 89.3181 26.029 87.8981C26.2653 86.8776 26.1853 85.8102 25.7996 84.8356V84.8443ZM13.129 86.2968C11.6113 84.3718 10.6231 82.6043 10.2878 81.0906C10.1489 80.5296 10.1189 79.9476 10.1996 79.3756C10.2613 78.9293 10.429 78.5356 10.6584 78.2031C11.1878 77.4418 12.1143 76.9693 13.129 76.9693C13.6109 76.9547 14.0889 77.059 14.5201 77.2728C14.9513 77.4866 15.3222 77.8033 15.5996 78.1943C15.829 78.5443 15.9966 78.9293 16.0496 79.3756C16.1378 79.8831 16.1025 80.4693 15.9613 81.0906C15.626 82.5781 14.6378 84.3631 13.129 86.2968ZM24.3702 87.5918C24.2699 88.3128 23.9809 88.9951 23.5319 89.5708C23.083 90.1465 22.4898 90.5955 21.8113 90.8731C21.1407 91.1531 20.3996 91.2318 19.676 91.1531C18.9702 91.0656 18.2643 90.8381 17.5407 90.4181C16.3394 89.6818 15.2592 88.7669 14.3378 87.7056C16.1907 85.4306 17.3113 83.3568 17.7349 81.5106C17.9378 80.6356 17.9643 79.8481 17.876 79.1218C17.7659 78.4335 17.507 77.7768 17.1172 77.1968C16.6722 76.5679 16.0781 76.0571 15.3873 75.7092C14.6965 75.3614 13.9301 75.1871 13.1554 75.2018C11.5231 75.2018 10.0672 75.9543 9.18486 77.1881C8.78766 77.7666 8.53096 78.4285 8.43486 79.1218C8.32016 79.8568 8.34663 80.6706 8.57604 81.5106C8.99957 83.3568 10.1466 85.4568 11.9731 87.7231C11.0673 88.8047 9.98459 89.7276 8.77015 90.4531C8.0378 90.8731 7.34074 91.0918 6.63486 91.1793C5.53711 91.3188 4.42823 91.0229 3.54924 90.3561C2.67025 89.6892 2.0922 88.7052 1.94074 87.6181C1.85251 86.9181 1.91427 86.2181 2.19663 85.4306C2.28486 85.1506 2.41721 84.8706 2.55839 84.5381C2.75251 84.0831 2.98192 83.6106 3.20251 83.1381L3.2378 83.0768C5.14368 78.9031 7.22604 74.6418 9.3878 70.4681L9.47604 70.2931C9.69662 69.8731 9.91721 69.4268 10.1466 69.0068C10.376 68.5606 10.6231 68.1318 10.9407 67.7818C11.2157 67.4563 11.5593 67.1946 11.9472 67.015C12.3352 66.8354 12.7582 66.7423 13.1863 66.7423C13.6145 66.7423 14.0375 66.8354 14.4254 67.015C14.8134 67.1946 15.157 67.4563 15.4319 67.7818C15.7407 68.1318 15.9966 68.5606 16.226 69.0068C16.4466 69.4268 16.6672 69.8818 16.8966 70.2931L16.9849 70.4681C19.1378 74.6418 21.2202 78.9031 23.1613 83.0768L23.1878 83.1031C23.4172 83.5581 23.6113 84.0656 23.8319 84.5031C23.9731 84.8443 24.1143 85.1156 24.2025 85.4043C24.3702 86.1918 24.4584 86.8918 24.3702 87.5918ZM36.6525 86.1043C35.9876 86.114 35.3291 85.975 34.7257 85.6978C34.1224 85.4207 33.5897 85.0123 33.1672 84.5031C32.2179 83.418 31.714 82.019 31.7554 80.5831C31.7409 79.1159 32.261 77.6928 33.2202 76.5756C33.6638 76.0599 34.2161 75.6469 34.838 75.3657C35.46 75.0845 36.1366 74.942 36.8202 74.9481C37.4633 74.9306 38.1004 75.0757 38.6715 75.3695C39.2426 75.6634 39.729 76.0965 40.0849 76.6281L40.1731 75.2543H42.7496V85.8243H40.1643L40.076 84.2843C39.7091 84.8519 39.202 85.3171 38.6028 85.6356C38.0036 85.9541 37.3323 86.1155 36.6525 86.1043ZM37.3231 83.5843C37.8349 83.5843 38.2849 83.4443 38.7084 83.1906C39.0966 82.9106 39.4143 82.5431 39.6613 82.0968C39.8819 81.6506 39.9966 81.1168 39.9966 80.5218C40.031 80.0051 39.9296 79.4883 39.7022 79.022C39.4749 78.5558 39.1294 78.156 38.6996 77.8618C38.2866 77.6067 37.8097 77.4714 37.3231 77.4714C36.8365 77.4714 36.3596 77.6067 35.9466 77.8618C35.5584 78.1418 35.2407 78.5093 34.9937 78.9556C34.7603 79.4477 34.6456 79.9869 34.6584 80.5306C34.624 81.0474 34.7254 81.5641 34.9528 82.0304C35.1801 82.4967 35.5256 82.8964 35.9554 83.1906C36.3702 83.4443 36.8202 83.5843 37.3231 83.5843ZM47.1613 72.4018C47.1613 72.7081 47.1084 72.9881 46.9672 73.2156C46.826 73.4343 46.6319 73.6356 46.376 73.7756C46.1202 73.9156 45.8466 73.9681 45.5643 73.9681C45.2819 73.9681 44.9996 73.9156 44.7437 73.7756C44.5017 73.642 44.2982 73.4492 44.1525 73.2156C44.0159 72.9663 43.9488 72.6854 43.9584 72.4018C43.9584 72.0868 44.0202 71.8068 44.1525 71.5881C44.2937 71.3256 44.4966 71.1681 44.7437 71.0281C44.9996 70.8881 45.2731 70.8268 45.5643 70.8268C45.8451 70.8204 46.1229 70.8864 46.3703 71.0183C46.6178 71.1502 46.8265 71.3435 46.976 71.5793C47.1044 71.8344 47.1681 72.1168 47.1613 72.4018ZM44.1613 85.7893V75.2368H46.9672V85.8068H44.1525L44.1613 85.7893ZM54.4672 78.0018V78.0368C54.3349 77.9756 54.1584 77.9493 54.026 77.9231C53.8496 77.8881 53.7084 77.8881 53.5407 77.8881C52.7554 77.8881 52.1643 78.1156 51.776 78.5881C51.3525 79.0693 51.1584 79.7431 51.1584 80.6093V85.7981H48.3437V75.2281H50.929L51.0172 76.8293C51.2996 76.2693 51.6349 75.8493 52.1113 75.5343C52.5853 75.2283 53.1432 75.0754 53.7084 75.0968C53.9113 75.0968 54.1054 75.1143 54.2731 75.1493C54.3613 75.1756 54.4143 75.1756 54.4672 75.2018V78.0018ZM55.5966 85.7893V70.8968H58.4025V76.5843C58.7996 76.0768 59.2496 75.6831 59.8143 75.3768C60.7083 74.9422 61.7239 74.8189 62.6972 75.0268C63.6705 75.2348 64.5448 75.7619 65.179 76.5231C66.1304 77.6104 66.6344 79.0129 66.5907 80.4518C66.6053 81.919 66.0851 83.3421 65.126 84.4593C64.6824 84.975 64.1301 85.388 63.5081 85.6692C62.8862 85.9504 62.2096 86.093 61.526 86.0868C60.8829 86.1043 60.2458 85.9593 59.6747 85.6654C59.1036 85.3715 58.6172 84.9384 58.2613 84.4068L58.1731 85.7806L55.5966 85.8068V85.7893ZM61.0231 83.5843C61.526 83.5843 61.976 83.4443 62.3996 83.1906C62.7878 82.9106 63.1054 82.5431 63.3525 82.0968C63.5819 81.6506 63.6878 81.1168 63.6878 80.5218C63.6878 79.9356 63.5819 79.4018 63.3525 78.9556C63.1208 78.5253 62.7952 78.1516 62.3996 77.8618C61.9866 77.6067 61.5097 77.4714 61.0231 77.4714C60.5365 77.4714 60.0596 77.6067 59.6466 77.8618C59.2496 78.1418 58.9407 78.5093 58.6849 78.9556C58.4515 79.4477 58.3367 79.9869 58.3496 80.5306C58.3152 81.0474 58.4166 81.5641 58.644 82.0304C58.8713 82.4967 59.2168 82.8964 59.6466 83.1906C60.0613 83.4443 60.5113 83.5843 61.0231 83.5843ZM67.6496 85.7981V75.2281H70.2349L70.3231 76.6018C70.648 76.0752 71.1088 75.6443 71.658 75.3535C72.2071 75.0628 72.8246 74.9228 73.4466 74.9481C74.1579 74.9359 74.857 75.1319 75.4565 75.5117C76.056 75.8914 76.5293 76.438 76.8172 77.0831C77.126 77.7481 77.2937 78.5706 77.2937 79.4893V85.8243H74.479V79.8568C74.479 79.1218 74.3113 78.5443 73.976 78.1156C73.6407 77.6956 73.1819 77.4681 72.5996 77.4681C72.176 77.4681 71.8055 77.5556 71.479 77.7481C71.1702 77.9493 70.9143 78.2031 70.7202 78.5618C70.5239 78.9245 70.4266 79.3317 70.4378 79.7431V85.7981H67.6496ZM78.6966 85.7981V70.8881H81.5113V76.5756C81.8926 76.0652 82.3885 75.6501 82.9598 75.363C83.5311 75.0759 84.1621 74.9249 84.8025 74.9218C85.4674 74.9122 86.1259 75.0511 86.7293 75.3283C87.3326 75.6055 87.8653 76.0139 88.2878 76.5231C89.2325 77.6103 89.7329 79.0086 89.6907 80.4431C89.7061 81.9104 89.1858 83.3337 88.226 84.4506C87.7824 84.9663 87.2301 85.3793 86.6081 85.6605C85.9862 85.9417 85.3096 86.0842 84.626 86.0781C83.9829 86.0955 83.3458 85.9505 82.7747 85.6566C82.2036 85.3627 81.7172 84.9296 81.3613 84.3981L81.2819 85.7718L78.6966 85.7981ZM84.1496 83.5843C84.6613 83.5843 85.1113 83.4443 85.526 83.1906C85.9231 82.9106 86.2319 82.5431 86.4878 82.0968C86.7084 81.6506 86.8231 81.1168 86.8231 80.5218C86.8575 80.0051 86.7561 79.4883 86.5287 79.022C86.3013 78.5558 85.9559 78.156 85.526 77.8618C85.113 77.6067 84.6362 77.4714 84.1496 77.4714C83.663 77.4714 83.1861 77.6067 82.7731 77.8618C82.3849 78.1418 82.0672 78.5093 81.8202 78.9556C81.5739 79.4433 81.4584 79.9857 81.4849 80.5306C81.4505 81.0474 81.5519 81.5641 81.7793 82.0304C82.0066 82.4967 82.3521 82.8964 82.7819 83.1906C83.1966 83.4443 83.6202 83.5843 84.1496 83.5843Z" fill="#FF385C"/>
</g>
<g clip-path="url(#clip1_17_374)">
<path d="M163.097 70.9728V77.7425H156.928V70.9728H154V87.1328H156.928V80.5829H163.097V87.1328H166.025V70.9728H163.097Z" fill="#33475B"/>
<path d="M175.397 81.9091C175.397 82.5567 175.142 83.1778 174.688 83.6358C174.233 84.0937 173.617 84.351 172.975 84.351C172.332 84.351 171.716 84.0937 171.262 83.6358C170.807 83.1778 170.552 82.5567 170.552 81.9091V74.9875H167.774V81.9091C167.774 83.2979 168.322 84.6299 169.296 85.612C170.27 86.5941 171.592 87.1458 172.97 87.1458C174.348 87.1458 175.669 86.5941 176.643 85.612C177.618 84.6299 178.165 83.2979 178.165 81.9091V74.9875H175.397V81.9091Z" fill="#33475B"/>
<path d="M195.979 75.7005C195.979 74.2817 196.91 73.8319 197.93 73.8319C198.752 73.8319 199.838 74.4625 200.549 75.2275L202.368 73.0669C201.46 71.8289 199.617 70.9728 198.109 70.9728C195.096 70.9728 192.917 72.7516 192.917 75.7005C192.917 81.1715 199.551 79.436 199.551 82.4977C199.551 83.4421 198.642 84.2765 197.6 84.2765C195.957 84.2765 195.425 83.4666 194.67 82.6105L192.651 84.7263C193.943 86.3244 195.535 87.1357 197.444 87.1357C200.306 87.1357 202.609 85.3352 202.609 82.5208C202.609 76.4467 195.974 78.334 195.974 75.7005" fill="#33475B"/>
<path d="M237.023 84.5513C235.381 84.5513 234.915 83.8354 234.915 82.7392V77.8871H237.466V75.4286H234.915V72.1847L232.099 73.4588V83.3423C232.099 85.8703 233.829 87.1444 236.202 87.1444C236.574 87.1512 236.946 87.1212 237.313 87.0547L238 84.505C237.69 84.5267 237.334 84.5484 237.023 84.5484" fill="#33475B"/>
<path d="M185.971 75.0685C184.595 75.0685 183.635 75.4705 182.706 76.3889V71.0697H179.924V80.9285C179.924 84.6193 182.572 87.1473 185.546 87.1473C188.846 87.1473 191.749 84.5745 191.749 81.1093C191.749 77.6876 189.077 75.0699 185.971 75.0699V75.0685ZM185.953 84.3257C185.329 84.3257 184.719 84.1391 184.2 83.7895C183.681 83.4399 183.276 82.943 183.037 82.3616C182.798 81.7802 182.736 81.1405 182.857 80.5233C182.979 79.9061 183.28 79.3392 183.721 78.8942C184.163 78.4493 184.725 78.1462 185.338 78.0235C185.95 77.9007 186.585 77.9637 187.161 78.2045C187.738 78.4453 188.231 78.8532 188.578 79.3764C188.925 79.8996 189.11 80.5147 189.11 81.144C189.11 81.9879 188.777 82.7971 188.185 83.3938C187.593 83.9905 186.791 84.3257 185.953 84.3257Z" fill="#33475B"/>
<path d="M216.179 80.9618C216.179 77.4909 213.282 74.9238 209.976 74.9238C207.002 74.9238 204.355 77.4518 204.355 81.1426V91.0072H207.137V85.6808C208.064 86.5977 209.025 87.0012 210.4 87.0012C213.506 87.0012 216.178 84.385 216.178 80.9618H216.179ZM213.545 80.9271C213.545 81.5564 213.36 82.1715 213.013 82.6947C212.666 83.218 212.173 83.6258 211.596 83.8666C211.019 84.1074 210.385 84.1704 209.772 84.0476C209.16 83.9249 208.598 83.6218 208.156 83.1769C207.715 82.7319 207.414 82.165 207.292 81.5478C207.171 80.9306 207.233 80.2909 207.472 79.7095C207.711 79.1281 208.115 78.6312 208.635 78.2816C209.154 77.932 209.764 77.7454 210.388 77.7454C211.225 77.7454 212.028 78.0806 212.62 78.6773C213.212 79.274 213.545 80.0832 213.545 80.9271Z" fill="#33475B"/>
<path d="M225.167 74.7879V71.9707C225.536 71.7967 225.849 71.5206 226.069 71.1744C226.289 70.8282 226.406 70.4263 226.408 70.0154V69.9503C226.408 69.3749 226.181 68.8232 225.778 68.4163C225.374 68.0095 224.827 67.781 224.256 67.781H224.191C223.621 67.781 223.073 68.0095 222.67 68.4163C222.266 68.8232 222.039 69.3749 222.039 69.9503V70.0154C222.041 70.4263 222.159 70.8282 222.378 71.1744C222.598 71.5206 222.911 71.7967 223.28 71.9707V74.7879C222.219 74.9516 221.219 75.3951 220.382 76.0736L212.717 70.0559C212.771 69.8574 212.8 69.6528 212.803 69.447C212.804 68.9635 212.663 68.4907 212.397 68.0882C212.131 67.6858 211.753 67.3719 211.31 67.1861C210.867 67.0004 210.38 66.9512 209.909 67.0448C209.438 67.1384 209.006 67.3705 208.666 67.7119C208.327 68.0532 208.095 68.4884 208.001 68.9625C207.907 69.4365 207.954 69.9281 208.137 70.375C208.32 70.8219 208.63 71.2041 209.029 71.4732C209.427 71.7423 209.896 71.8862 210.376 71.8868C210.795 71.8849 211.207 71.7722 211.569 71.5599L219.118 77.4793C218.44 78.5119 218.086 79.7265 218.102 80.9647C218.119 82.203 218.505 83.4075 219.211 84.4212L216.915 86.7351C216.73 86.6753 216.536 86.6437 216.341 86.6411C215.948 86.6414 215.563 86.7593 215.236 86.98C214.908 87.2007 214.653 87.5142 214.503 87.8809C214.352 88.2477 214.313 88.6512 214.39 89.0404C214.467 89.4297 214.656 89.7872 214.935 90.0679C215.213 90.3485 215.568 90.5397 215.954 90.6172C216.34 90.6947 216.741 90.655 217.104 90.5033C217.468 90.3515 217.779 90.0945 217.998 89.7646C218.217 89.4347 218.334 89.0468 218.334 88.6499C218.332 88.4535 218.301 88.2585 218.241 88.0714L220.512 85.782C221.253 86.3565 222.114 86.7525 223.03 86.9397C223.946 87.1269 224.892 87.1003 225.797 86.8619C226.701 86.6236 227.539 86.1799 228.246 85.5647C228.954 84.9496 229.513 84.1793 229.88 83.3129C230.246 82.4466 230.412 81.5071 230.363 80.5664C230.313 79.6257 230.051 78.7089 229.597 77.886C229.142 77.0632 228.506 76.3562 227.738 75.8191C226.971 75.2821 226.091 74.9294 225.167 74.7879ZM224.226 84.0524C223.605 84.0518 222.997 83.8656 222.481 83.5173C221.965 83.169 221.562 82.6742 221.325 82.0955C221.087 81.5168 221.026 80.8802 221.147 80.266C221.268 79.6519 221.568 79.0878 222.007 78.6451C222.447 78.2024 223.006 77.9009 223.616 77.7787C224.225 77.6566 224.857 77.7193 225.431 77.9589C226.005 78.1985 226.496 78.6042 226.841 79.1248C227.186 79.6454 227.371 80.2575 227.371 80.8837C227.371 81.7237 227.04 82.5293 226.451 83.1233C225.861 83.7172 225.062 84.0509 224.229 84.0509" fill="#FF7A59"/>
</g>
<g clip-path="url(#clip2_17_374)">
<path d="M189.746 139.359C189.746 143.246 186.661 146.11 182.875 146.11C179.089 146.11 176.004 143.246 176.004 139.359C176.004 135.445 179.089 132.609 182.875 132.609C186.661 132.609 189.746 135.445 189.746 139.359ZM186.738 139.359C186.738 136.93 184.95 135.269 182.875 135.269C180.8 135.269 179.012 136.93 179.012 139.359C179.012 141.763 180.8 143.45 182.875 143.45C184.95 143.45 186.738 141.76 186.738 139.359Z" fill="#EA4335"/>
<path d="M204.57 139.359C204.57 143.246 201.485 146.11 197.698 146.11C193.912 146.11 190.827 143.246 190.827 139.359C190.827 135.448 193.912 132.609 197.698 132.609C201.485 132.609 204.57 135.445 204.57 139.359ZM201.562 139.359C201.562 136.93 199.774 135.269 197.698 135.269C195.623 135.269 193.835 136.93 193.835 139.359C193.835 141.763 195.623 143.45 197.698 143.45C199.774 143.45 201.562 141.76 201.562 139.359Z" fill="#FBBC05"/>
<path d="M218.776 133.017V145.136C218.776 150.121 215.792 152.157 212.266 152.157C208.946 152.157 206.948 149.969 206.194 148.179L208.813 147.105C209.279 148.203 210.422 149.5 212.263 149.5C214.52 149.5 215.919 148.127 215.919 145.543V144.573H215.814C215.141 145.391 213.844 146.107 212.207 146.107C208.782 146.107 205.645 143.167 205.645 139.383C205.645 135.573 208.782 132.609 212.207 132.609C213.841 132.609 215.138 133.324 215.814 134.118H215.919V133.02H218.776V133.017ZM216.132 139.383C216.132 137.007 214.523 135.269 212.476 135.269C210.4 135.269 208.662 137.007 208.662 139.383C208.662 141.736 210.4 143.45 212.476 143.45C214.523 143.45 216.132 141.736 216.132 139.383Z" fill="#4285F4"/>
<path d="M223.485 125.913V145.696H220.551V125.913H223.485Z" fill="#34A853"/>
<path d="M234.918 141.581L237.253 143.115C236.499 144.213 234.683 146.107 231.546 146.107C227.655 146.107 224.748 143.142 224.748 139.356C224.748 135.342 227.679 132.606 231.209 132.606C234.764 132.606 236.502 135.393 237.071 136.9L237.382 137.667L228.226 141.404C228.927 142.759 230.017 143.45 231.546 143.45C233.077 143.45 234.14 142.707 234.918 141.581ZM227.732 139.152L233.853 136.647C233.516 135.804 232.503 135.217 231.311 135.217C229.782 135.217 227.655 136.547 227.732 139.152Z" fill="#EA4335"/>
<path d="M164.898 137.603V134.739H174.691C174.787 135.238 174.836 135.829 174.836 136.468C174.836 138.617 174.24 141.273 172.32 143.167C170.451 145.084 168.064 146.107 164.902 146.107C159.04 146.107 154.111 141.401 154.111 135.625C154.111 129.848 159.04 125.143 164.902 125.143C168.144 125.143 170.454 126.397 172.19 128.031L170.139 130.052C168.895 128.902 167.208 128.007 164.898 128.007C160.618 128.007 157.271 131.407 157.271 135.625C157.271 139.843 160.618 143.243 164.898 143.243C167.675 143.243 169.256 142.144 170.269 141.146C171.09 140.336 171.631 139.18 171.844 137.6L164.898 137.603Z" fill="#4285F4"/>
</g>
<g clip-path="url(#clip3_17_374)">
<path d="M43.0636 140.975L42.3364 143.031H42.2758C42.1546 142.567 41.9324 141.862 41.5689 141.016L37.6705 131.24H33.853V146.82H36.3778V137.206C36.3778 136.602 36.3778 135.916 36.3576 135.07C36.3374 134.647 36.297 134.324 36.2768 134.082H36.3374C36.4586 134.687 36.6 135.13 36.701 135.412L41.3871 146.78H43.1646L47.8102 135.312C47.9112 135.05 48.0122 134.526 48.1132 134.082H48.1738C48.1132 135.231 48.0728 136.259 48.0526 136.884V146.76H50.7391V131.2H47.0629L43.0636 140.975ZM53.2841 135.594H55.9099V146.76H53.2841V135.594ZM54.6172 130.878C54.1728 130.878 53.8093 131.039 53.5063 131.321C53.2033 131.603 53.0417 131.966 53.0417 132.409C53.0417 132.833 53.2033 133.195 53.5063 133.478C53.8093 133.76 54.1728 133.901 54.6172 133.901C55.0616 133.901 55.4453 133.74 55.7281 133.478C56.0311 133.195 56.1927 132.833 56.1927 132.409C56.1927 131.986 56.0311 131.623 55.7281 131.321C55.4655 131.039 55.0818 130.878 54.6172 130.878ZM65.2215 135.493C64.7367 135.392 64.2318 135.332 63.747 135.332C62.5553 135.332 61.4645 135.594 60.5556 136.118C59.6467 136.642 58.9195 137.367 58.4549 138.274C57.9702 139.202 57.7278 140.27 57.7278 141.499C57.7278 142.567 57.9702 143.515 58.4347 144.381C58.8993 145.228 59.5457 145.913 60.4142 146.377C61.2424 146.84 62.2119 147.082 63.3026 147.082C64.5549 147.082 65.6255 146.82 66.4738 146.336L66.494 146.316V143.898L66.393 143.978C66.0093 144.26 65.5649 144.502 65.1205 144.643C64.6559 144.805 64.2318 144.885 63.8682 144.885C62.8179 144.885 61.9897 144.583 61.404 143.918C60.798 143.273 60.495 142.386 60.495 141.278C60.495 140.129 60.798 139.222 61.4242 138.557C62.0503 137.891 62.8785 137.549 63.8884 137.549C64.7367 137.549 65.6053 137.831 66.393 138.395L66.494 138.476V135.916L66.4738 135.896C66.1304 135.755 65.7467 135.594 65.2215 135.493ZM73.8867 135.412C73.2404 135.412 72.6344 135.614 72.1093 136.037C71.6649 136.4 71.3619 136.924 71.0993 137.549H71.0791V135.594H68.4533V146.76H71.0791V141.056C71.0791 140.088 71.2811 139.282 71.7255 138.698C72.1698 138.093 72.7354 137.791 73.4222 137.791C73.6646 137.791 73.9069 137.851 74.2099 137.891C74.4927 137.972 74.6947 138.053 74.8361 138.153L74.9371 138.234V135.614L74.8765 135.594C74.6947 135.473 74.3311 135.412 73.8867 135.412ZM81.0371 135.352C79.199 135.352 77.7245 135.896 76.6944 136.964C75.644 138.033 75.1391 139.504 75.1391 141.358C75.1391 143.091 75.6642 144.502 76.6742 145.53C77.6841 146.538 79.0576 147.062 80.7745 147.062C82.5722 147.062 84.0063 146.518 85.0364 145.429C86.0867 144.341 86.5917 142.89 86.5917 141.096C86.5917 139.322 86.1069 137.912 85.1172 136.884C84.1679 135.856 82.7742 135.352 81.0371 135.352ZM83.1377 143.938C82.653 144.563 81.8854 144.865 80.9361 144.865C79.9867 144.865 79.2192 144.563 78.6738 143.898C78.1285 143.273 77.8659 142.366 77.8659 141.217C77.8659 140.028 78.1487 139.121 78.6738 138.476C79.2192 137.831 79.9665 137.509 80.9159 137.509C81.845 137.509 82.5722 137.811 83.0973 138.436C83.6225 139.06 83.9053 139.967 83.9053 141.157C83.8649 142.366 83.6427 143.313 83.1377 143.938ZM92.4493 140.229C91.6212 139.887 91.096 139.625 90.8536 139.403C90.6516 139.202 90.5506 138.919 90.5506 138.557C90.5506 138.254 90.6718 137.952 90.9748 137.75C91.2778 137.549 91.6212 137.448 92.1261 137.448C92.5705 137.448 93.0351 137.529 93.4794 137.65C93.9238 137.771 94.3278 137.952 94.651 138.194L94.752 138.274V135.816L94.6914 135.795C94.3884 135.674 93.9844 135.553 93.4996 135.453C93.0149 135.372 92.5705 135.332 92.2069 135.332C90.9546 135.332 89.9245 135.634 89.1165 136.299C88.3086 136.924 87.9248 137.771 87.9248 138.758C87.9248 139.282 88.0056 139.746 88.1874 140.129C88.3692 140.512 88.6318 140.874 88.9953 141.177C89.3589 141.459 89.8841 141.781 90.6112 142.084C91.2172 142.346 91.6818 142.547 91.9645 142.709C92.2473 142.87 92.4291 143.051 92.5705 143.192C92.6715 143.353 92.7321 143.555 92.7321 143.817C92.7321 144.563 92.1665 144.926 91.0152 144.926C90.5708 144.926 90.1063 144.845 89.5609 144.664C89.0155 144.482 88.5106 144.22 88.0864 143.918L87.9854 143.837V146.397L88.046 146.417C88.4298 146.598 88.8943 146.719 89.4599 146.86C90.0255 146.961 90.5304 147.042 90.9748 147.042C92.3281 147.042 93.439 146.74 94.2268 146.074C95.0347 145.429 95.4589 144.603 95.4589 143.535C95.4589 142.789 95.2569 142.124 94.8126 141.62C94.2268 141.136 93.4996 140.633 92.4493 140.229ZM102.387 135.352C100.549 135.352 99.0745 135.896 98.0443 136.964C97.0142 138.033 96.4891 139.504 96.4891 141.358C96.4891 143.091 97.0142 144.502 98.0241 145.53C99.0341 146.538 100.408 147.062 102.124 147.062C103.922 147.062 105.356 146.518 106.386 145.429C107.437 144.341 107.942 142.89 107.942 141.096C107.942 139.322 107.457 137.912 106.467 136.884C105.518 135.856 104.124 135.352 102.387 135.352ZM104.468 143.938C103.983 144.563 103.215 144.865 102.266 144.865C101.296 144.865 100.549 144.563 100.004 143.898C99.4583 143.273 99.1957 142.366 99.1957 141.217C99.1957 140.028 99.4785 139.121 100.004 138.476C100.549 137.831 101.296 137.509 102.246 137.509C103.155 137.509 103.902 137.811 104.427 138.436C104.952 139.06 105.235 139.967 105.235 141.157C105.235 142.366 104.972 143.313 104.468 143.938ZM121.98 137.75V135.594H119.334V132.288L119.253 132.309L116.748 133.054L116.688 133.074V135.594H112.729V134.183C112.729 133.538 112.89 133.034 113.173 132.712C113.456 132.389 113.88 132.228 114.405 132.228C114.769 132.228 115.153 132.309 115.577 132.49L115.678 132.55V130.273L115.617 130.253C115.254 130.132 114.769 130.051 114.143 130.051C113.355 130.051 112.668 130.233 112.042 130.535C111.416 130.878 110.951 131.341 110.608 131.966C110.265 132.571 110.083 133.256 110.083 134.042V135.594H108.245V137.73H110.083V146.76H112.729V137.75H116.688V143.495C116.688 145.853 117.799 147.042 120.021 147.042C120.384 147.042 120.768 146.981 121.131 146.921C121.515 146.84 121.798 146.74 121.96 146.659L121.98 146.639V144.482L121.879 144.563C121.717 144.664 121.576 144.744 121.333 144.805C121.131 144.865 120.95 144.885 120.808 144.885C120.283 144.885 119.92 144.764 119.657 144.462C119.415 144.18 119.293 143.716 119.293 143.031V137.75H121.98Z" fill="#737373"/>
<path d="M0 126H12.3818V138.355H0V126Z" fill="#F25022"/>
<path d="M13.6744 126H26.0562V138.355H13.6744V126Z" fill="#7FBA00"/>
<path d="M0 139.645H12.3818V152H0V139.645Z" fill="#00A4EF"/>
<path d="M13.6744 139.645H26.0562V152H13.6744V139.645Z" fill="#FFB900"/>
</g>
<path d="M4.774 24H6.534V9.26H11.022V7.61H0.242V9.26H4.774V24ZM12.5213 24H14.1713V16.74C14.1713 15.772 14.4279 15.024 14.9413 14.496C15.4546 13.968 16.1366 13.704 16.9873 13.704H18.0213V12.054H17.2733C16.5546 12.054 15.9313 12.1787 15.4033 12.428C14.8899 12.6773 14.4793 13.0293 14.1713 13.484V12.208H12.5213V24ZM25.0149 24.264C25.7482 24.264 26.4082 24.11 26.9949 23.802C27.5815 23.494 28.0509 23.076 28.4029 22.548V24H30.0529V12.208H28.4029V19.226C28.4029 20.282 28.1095 21.1107 27.5229 21.712C26.9509 22.3133 26.2102 22.614 25.3009 22.614C24.4062 22.614 23.6729 22.328 23.1009 21.756C22.5289 21.1693 22.2429 20.3993 22.2429 19.446V12.208H20.5929V19.644C20.5929 20.5533 20.7835 21.36 21.1649 22.064C21.5609 22.7533 22.0962 23.296 22.7709 23.692C23.4455 24.0733 24.1935 24.264 25.0149 24.264ZM38.4182 24.264C39.2395 24.264 39.9655 24.1247 40.5962 23.846C41.2269 23.5527 41.7182 23.1493 42.0702 22.636C42.4369 22.1227 42.6202 21.5433 42.6202 20.898C42.6202 20.106 42.3489 19.4167 41.8062 18.83C41.2782 18.2433 40.5375 17.8107 39.5842 17.532L37.6262 16.96C37.4209 16.9013 37.1789 16.8133 36.9002 16.696C36.6362 16.5787 36.4015 16.4027 36.1962 16.168C35.9909 15.9333 35.8882 15.618 35.8882 15.222C35.8882 14.7087 36.0862 14.2833 36.4822 13.946C36.8782 13.6087 37.4062 13.44 38.0662 13.44C38.7409 13.44 39.3495 13.6307 39.8922 14.012C40.4495 14.3787 40.8749 14.892 41.1682 15.552L42.5762 14.892C42.2389 13.968 41.6595 13.2493 40.8382 12.736C40.0315 12.208 39.1295 11.944 38.1322 11.944C37.3989 11.944 36.7315 12.0833 36.1302 12.362C35.5289 12.6407 35.0522 13.0367 34.7002 13.55C34.3482 14.0633 34.1722 14.6647 34.1722 15.354C34.1722 16.0873 34.4142 16.7327 34.8982 17.29C35.3822 17.8473 36.1669 18.28 37.2522 18.588L38.9462 19.072C39.1809 19.1307 39.4522 19.226 39.7602 19.358C40.0682 19.49 40.3395 19.6807 40.5742 19.93C40.8089 20.1647 40.9262 20.4873 40.9262 20.898C40.9262 21.4553 40.6842 21.91 40.2002 22.262C39.7162 22.5993 39.1222 22.768 38.4182 22.768C37.6849 22.768 37.0102 22.5553 36.3942 22.13C35.7929 21.7047 35.3235 21.1327 34.9862 20.414L33.6002 21.074C33.9815 22.0567 34.5975 22.834 35.4482 23.406C36.2989 23.978 37.2889 24.264 38.4182 24.264ZM50.9095 24.132C51.0415 24.132 51.2175 24.1247 51.4375 24.11C51.6575 24.0953 51.8555 24.066 52.0315 24.022V22.526C51.9142 22.5407 51.7749 22.5553 51.6135 22.57C51.4522 22.5847 51.3129 22.592 51.1955 22.592C50.4622 22.592 49.9562 22.4013 49.6775 22.02C49.3989 21.6387 49.2595 21.1547 49.2595 20.568V13.858H51.8555V12.208H49.2595V9.48H47.6095V10.47C47.6095 10.9687 47.4629 11.3867 47.1695 11.724C46.8762 12.0467 46.4802 12.208 45.9815 12.208H45.4315V13.858H47.6095V20.568C47.6095 21.712 47.8955 22.592 48.4675 23.208C49.0395 23.824 49.8535 24.132 50.9095 24.132ZM60.7472 24.264C61.5538 24.264 62.2872 24.132 62.9472 23.868C63.6218 23.5893 64.2012 23.23 64.6852 22.79C65.1692 22.3353 65.5285 21.844 65.7632 21.316L64.3552 20.568C63.9885 21.184 63.5118 21.6973 62.9252 22.108C62.3385 22.5187 61.6125 22.724 60.7472 22.724C60.0432 22.724 59.3832 22.5553 58.7672 22.218C58.1512 21.8807 57.6452 21.4113 57.2492 20.81C56.8678 20.194 56.6625 19.4607 56.6332 18.61H65.9172C65.9465 18.4193 65.9685 18.236 65.9832 18.06C65.9978 17.8693 66.0052 17.7007 66.0052 17.554C66.0052 16.85 65.8805 16.168 65.6312 15.508C65.3818 14.8333 65.0225 14.232 64.5532 13.704C64.0838 13.1613 63.5118 12.736 62.8372 12.428C62.1772 12.1053 61.4218 11.944 60.5712 11.944C59.5005 11.944 58.5325 12.208 57.6672 12.736C56.8165 13.264 56.1418 13.99 55.6432 14.914C55.1445 15.8233 54.8952 16.872 54.8952 18.06C54.8952 19.248 55.1518 20.3113 55.6652 21.25C56.1785 22.1887 56.8752 22.9293 57.7552 23.472C58.6498 24 59.6472 24.264 60.7472 24.264ZM60.5712 13.484C61.2312 13.484 61.8325 13.638 62.3752 13.946C62.9325 14.254 63.3725 14.6793 63.6952 15.222C64.0325 15.75 64.2085 16.366 64.2232 17.07H56.6772C56.7652 16.3367 56.9925 15.706 57.3592 15.178C57.7405 14.6353 58.2098 14.2173 58.7672 13.924C59.3245 13.6307 59.9258 13.484 60.5712 13.484ZM75.1183 24.264C76.0276 24.264 76.8636 24.0733 77.6263 23.692C78.389 23.3107 78.9903 22.7753 79.4303 22.086V24H81.0803V7.346H79.4303V13.99C78.9463 13.3593 78.3376 12.8607 77.6043 12.494C76.871 12.1273 76.0423 11.944 75.1183 11.944C74.0036 11.944 73.0063 12.2153 72.1263 12.758C71.261 13.286 70.5716 14.012 70.0583 14.936C69.5596 15.86 69.3103 16.916 69.3103 18.104C69.3103 19.2773 69.5596 20.3333 70.0583 21.272C70.5716 22.196 71.2683 22.9293 72.1483 23.472C73.0283 24 74.0183 24.264 75.1183 24.264ZM75.2063 22.614C74.4143 22.614 73.703 22.416 73.0723 22.02C72.4563 21.624 71.965 21.0887 71.5983 20.414C71.2463 19.7247 71.0703 18.9547 71.0703 18.104C71.0703 17.2387 71.2463 16.4687 71.5983 15.794C71.965 15.1193 72.4636 14.584 73.0943 14.188C73.725 13.792 74.429 13.594 75.2063 13.594C75.9983 13.594 76.7096 13.792 77.3403 14.188C77.9856 14.584 78.4916 15.1267 78.8583 15.816C79.2396 16.4907 79.4303 17.2533 79.4303 18.104C79.4303 18.9547 79.2396 19.7247 78.8583 20.414C78.4916 21.0887 77.9856 21.624 77.3403 22.02C76.7096 22.416 75.9983 22.614 75.2063 22.614ZM95.9284 24.264C97.0431 24.264 98.0331 24 98.8984 23.472C99.7784 22.9293 100.468 22.196 100.966 21.272C101.48 20.3333 101.736 19.2773 101.736 18.104C101.736 16.916 101.48 15.86 100.966 14.936C100.468 14.012 99.7784 13.286 98.8984 12.758C98.0331 12.2153 97.0431 11.944 95.9284 11.944C95.0044 11.944 94.1758 12.1273 93.4424 12.494C92.7091 12.8607 92.1004 13.3593 91.6164 13.99V7.346H89.9664V24H91.6164V22.086C92.0564 22.7753 92.6578 23.3107 93.4204 23.692C94.1831 24.0733 95.0191 24.264 95.9284 24.264ZM95.8404 22.614C95.0484 22.614 94.3298 22.416 93.6844 22.02C93.0538 21.624 92.5478 21.0887 92.1664 20.414C91.7998 19.7247 91.6164 18.9547 91.6164 18.104C91.6164 17.2533 91.7998 16.4907 92.1664 15.816C92.5478 15.1267 93.0538 14.584 93.6844 14.188C94.3298 13.792 95.0484 13.594 95.8404 13.594C96.6324 13.594 97.3364 13.792 97.9524 14.188C98.5831 14.584 99.0744 15.1193 99.4264 15.794C99.7931 16.4687 99.9764 17.2387 99.9764 18.104C99.9764 18.9547 99.7931 19.7247 99.4264 20.414C99.0744 21.0887 98.5831 21.624 97.9524 22.02C97.3364 22.416 96.6324 22.614 95.8404 22.614ZM105.547 28.84C106.325 28.84 106.985 28.6787 107.527 28.356C108.07 28.048 108.517 27.6373 108.869 27.124C109.236 26.6107 109.537 26.068 109.771 25.496L115.161 12.186H113.335L109.485 21.932L105.635 12.186H103.853L108.561 24L108.143 25.012C107.777 25.8627 107.403 26.4347 107.021 26.728C106.64 27.036 106.09 27.19 105.371 27.19C105.137 27.19 104.902 27.168 104.667 27.124C104.447 27.0947 104.264 27.0727 104.117 27.058V28.598C104.352 28.686 104.587 28.7447 104.821 28.774C105.071 28.818 105.313 28.84 105.547 28.84ZM124.887 24H126.647V7.61H121.807V9.15H124.887V24ZM138.023 24.264C139.313 24.264 140.443 23.912 141.411 23.208C142.379 22.504 143.127 21.514 143.655 20.238C144.197 18.962 144.469 17.4807 144.469 15.794C144.469 14.1073 144.197 12.6333 143.655 11.372C143.112 10.096 142.357 9.106 141.389 8.402C140.421 7.698 139.291 7.346 138.001 7.346C136.71 7.346 135.581 7.698 134.613 8.402C133.645 9.106 132.889 10.096 132.347 11.372C131.804 12.6333 131.533 14.1073 131.533 15.794C131.533 17.4807 131.804 18.962 132.347 20.238C132.889 21.4993 133.645 22.4893 134.613 23.208C135.595 23.912 136.732 24.264 138.023 24.264ZM138.023 22.614C137.084 22.614 136.255 22.328 135.537 21.756C134.833 21.184 134.283 20.3847 133.887 19.358C133.491 18.3313 133.293 17.1433 133.293 15.794C133.293 14.43 133.491 13.242 133.887 12.23C134.283 11.2033 134.833 10.4113 135.537 9.854C136.241 9.282 137.062 8.996 138.001 8.996C138.954 8.996 139.783 9.282 140.487 9.854C141.191 10.4113 141.741 11.2033 142.137 12.23C142.533 13.242 142.731 14.43 142.731 15.794C142.731 17.158 142.533 18.3533 142.137 19.38C141.741 20.392 141.191 21.184 140.487 21.756C139.783 22.328 138.961 22.614 138.023 22.614ZM152.794 24H154.444V19.314H159.108V17.664H154.444V13H152.794V17.664H148.108V19.314H152.794V24ZM172.866 24.264C173.599 24.264 174.289 24.132 174.934 23.868C175.579 23.604 176.151 23.2447 176.65 22.79C177.149 22.3353 177.523 21.822 177.772 21.25L176.276 20.436C175.968 21.096 175.513 21.624 174.912 22.02C174.325 22.416 173.643 22.614 172.866 22.614C172.089 22.614 171.385 22.416 170.754 22.02C170.138 21.624 169.647 21.0887 169.28 20.414C168.928 19.7247 168.752 18.9547 168.752 18.104C168.752 17.2387 168.928 16.4687 169.28 15.794C169.647 15.1047 170.138 14.5693 170.754 14.188C171.385 13.792 172.089 13.594 172.866 13.594C173.643 13.594 174.333 13.792 174.934 14.188C175.535 14.584 175.983 15.0973 176.276 15.728L177.772 14.958C177.523 14.3713 177.149 13.858 176.65 13.418C176.151 12.9633 175.579 12.604 174.934 12.34C174.289 12.076 173.599 11.944 172.866 11.944C171.707 11.944 170.688 12.2153 169.808 12.758C168.928 13.286 168.239 14.012 167.74 14.936C167.241 15.86 166.992 16.9087 166.992 18.082C166.992 19.2553 167.241 20.3113 167.74 21.25C168.239 22.174 168.928 22.9073 169.808 23.45C170.688 23.9927 171.707 24.264 172.866 24.264ZM187.069 24.264C188.169 24.264 189.167 24 190.061 23.472C190.971 22.944 191.697 22.218 192.239 21.294C192.782 20.3553 193.053 19.2847 193.053 18.082C193.053 16.894 192.789 15.838 192.261 14.914C191.748 13.99 191.037 13.264 190.127 12.736C189.233 12.208 188.213 11.944 187.069 11.944C185.925 11.944 184.899 12.2153 183.989 12.758C183.095 13.286 182.383 14.012 181.855 14.936C181.327 15.86 181.063 16.9087 181.063 18.082C181.063 19.27 181.327 20.3333 181.855 21.272C182.398 22.196 183.124 22.9293 184.033 23.472C184.943 24 185.955 24.264 187.069 24.264ZM187.069 22.614C186.277 22.614 185.559 22.416 184.913 22.02C184.283 21.624 183.777 21.0813 183.395 20.392C183.014 19.7027 182.823 18.9327 182.823 18.082C182.823 17.2313 183.014 16.4687 183.395 15.794C183.777 15.1193 184.283 14.584 184.913 14.188C185.559 13.792 186.277 13.594 187.069 13.594C187.861 13.594 188.573 13.792 189.203 14.188C189.849 14.584 190.355 15.1193 190.721 15.794C191.103 16.4687 191.293 17.2313 191.293 18.082C191.293 18.9327 191.103 19.7027 190.721 20.392C190.355 21.0813 189.849 21.624 189.203 22.02C188.573 22.416 187.861 22.614 187.069 22.614ZM196.843 24H198.493V16.982C198.493 15.926 198.779 15.0973 199.351 14.496C199.923 13.8947 200.635 13.594 201.485 13.594C202.336 13.594 203.04 13.8947 203.597 14.496C204.155 15.0827 204.433 15.9113 204.433 16.982V24H206.083V16.982C206.083 15.926 206.369 15.0973 206.941 14.496C207.513 13.8947 208.225 13.594 209.075 13.594C209.926 13.594 210.63 13.8947 211.187 14.496C211.745 15.0827 212.023 15.9113 212.023 16.982V24H213.673V16.344C213.673 15.508 213.468 14.76 213.057 14.1C212.661 13.4253 212.126 12.8973 211.451 12.516C210.791 12.1347 210.065 11.944 209.273 11.944C208.481 11.944 207.748 12.1347 207.073 12.516C206.413 12.8973 205.907 13.4547 205.555 14.188C205.189 13.5133 204.668 12.9707 203.993 12.56C203.319 12.1493 202.578 11.944 201.771 11.944C201.097 11.944 200.466 12.098 199.879 12.406C199.307 12.6993 198.845 13.1173 198.493 13.66V12.208H196.843V24ZM217.704 28.4H219.354V22.086C219.794 22.7753 220.395 23.3107 221.158 23.692C221.921 24.0733 222.757 24.264 223.666 24.264C224.781 24.264 225.771 24 226.636 23.472C227.516 22.9293 228.205 22.196 228.704 21.272C229.217 20.3333 229.474 19.2773 229.474 18.104C229.474 16.916 229.217 15.86 228.704 14.936C228.205 14.012 227.516 13.286 226.636 12.758C225.771 12.2153 224.781 11.944 223.666 11.944C222.742 11.944 221.913 12.1273 221.18 12.494C220.447 12.8607 219.838 13.3593 219.354 13.99V12.208H217.704V28.4ZM223.578 22.614C222.786 22.614 222.067 22.416 221.422 22.02C220.791 21.624 220.285 21.0887 219.904 20.414C219.537 19.7247 219.354 18.9547 219.354 18.104C219.354 17.2533 219.537 16.4907 219.904 15.816C220.285 15.1267 220.791 14.584 221.422 14.188C222.067 13.792 222.786 13.594 223.578 13.594C224.37 13.594 225.074 13.792 225.69 14.188C226.321 14.584 226.812 15.1193 227.164 15.794C227.531 16.4687 227.714 17.2387 227.714 18.104C227.714 18.9547 227.531 19.7247 227.164 20.414C226.812 21.0887 226.321 21.624 225.69 22.02C225.074 22.416 224.37 22.614 223.578 22.614ZM236.668 24.264C237.577 24.264 238.398 24.0807 239.132 23.714C239.865 23.3473 240.422 22.878 240.804 22.306V24H242.454V15.904C242.454 15.1267 242.263 14.4447 241.882 13.858C241.515 13.2567 240.994 12.7873 240.32 12.45C239.66 12.1127 238.897 11.944 238.032 11.944C237.372 11.944 236.734 12.0687 236.118 12.318C235.502 12.5527 234.952 12.8753 234.468 13.286C233.998 13.6967 233.654 14.1513 233.434 14.65L234.93 15.464C235.194 14.892 235.597 14.43 236.14 14.078C236.682 13.7113 237.313 13.528 238.032 13.528C238.853 13.528 239.52 13.748 240.034 14.188C240.547 14.628 240.804 15.2 240.804 15.904V16.52L236.536 17.224C235.23 17.444 234.277 17.8913 233.676 18.566C233.074 19.2407 232.774 20.0327 232.774 20.942C232.774 21.5873 232.942 22.1593 233.28 22.658C233.617 23.1567 234.079 23.5527 234.666 23.846C235.252 24.1247 235.92 24.264 236.668 24.264ZM234.534 20.876C234.534 20.3333 234.717 19.864 235.084 19.468C235.465 19.072 236.081 18.8007 236.932 18.654L240.804 18.016V18.896C240.804 19.6147 240.635 20.2673 240.298 20.854C239.96 21.4407 239.491 21.91 238.89 22.262C238.288 22.5993 237.584 22.768 236.778 22.768C236.118 22.768 235.575 22.5847 235.15 22.218C234.739 21.8513 234.534 21.404 234.534 20.876ZM246.728 24H248.378V16.982C248.378 15.926 248.671 15.0973 249.258 14.496C249.844 13.8947 250.585 13.594 251.48 13.594C252.389 13.594 253.122 13.8947 253.68 14.496C254.252 15.0827 254.538 15.9113 254.538 16.982V24H256.188V16.344C256.188 15.508 255.99 14.76 255.594 14.1C255.212 13.4253 254.684 12.8973 254.01 12.516C253.35 12.1347 252.602 11.944 251.766 11.944C251.032 11.944 250.372 12.098 249.786 12.406C249.199 12.714 248.73 13.132 248.378 13.66V12.208H246.728V24ZM260.219 10.03H261.869V7.61H260.219V10.03ZM260.219 24H261.869V12.208H260.219V24ZM271.494 24.264C272.301 24.264 273.034 24.132 273.694 23.868C274.369 23.5893 274.948 23.23 275.432 22.79C275.916 22.3353 276.276 21.844 276.51 21.316L275.102 20.568C274.736 21.184 274.259 21.6973 273.672 22.108C273.086 22.5187 272.36 22.724 271.494 22.724C270.79 22.724 270.13 22.5553 269.514 22.218C268.898 21.8807 268.392 21.4113 267.996 20.81C267.615 20.194 267.41 19.4607 267.38 18.61H276.664C276.694 18.4193 276.716 18.236 276.73 18.06C276.745 17.8693 276.752 17.7007 276.752 17.554C276.752 16.85 276.628 16.168 276.378 15.508C276.129 14.8333 275.77 14.232 275.3 13.704C274.831 13.1613 274.259 12.736 273.584 12.428C272.924 12.1053 272.169 11.944 271.318 11.944C270.248 11.944 269.28 12.208 268.414 12.736C267.564 13.264 266.889 13.99 266.39 14.914C265.892 15.8233 265.642 16.872 265.642 18.06C265.642 19.248 265.899 20.3113 266.412 21.25C266.926 22.1887 267.622 22.9293 268.502 23.472C269.397 24 270.394 24.264 271.494 24.264ZM271.318 13.484C271.978 13.484 272.58 13.638 273.122 13.946C273.68 14.254 274.12 14.6793 274.442 15.222C274.78 15.75 274.956 16.366 274.97 17.07H267.424C267.512 16.3367 267.74 15.706 268.106 15.178C268.488 14.6353 268.957 14.2173 269.514 13.924C270.072 13.6307 270.673 13.484 271.318 13.484ZM284.633 24.264C285.455 24.264 286.181 24.1247 286.811 23.846C287.442 23.5527 287.933 23.1493 288.285 22.636C288.652 22.1227 288.835 21.5433 288.835 20.898C288.835 20.106 288.564 19.4167 288.021 18.83C287.493 18.2433 286.753 17.8107 285.799 17.532L283.841 16.96C283.636 16.9013 283.394 16.8133 283.115 16.696C282.851 16.5787 282.617 16.4027 282.411 16.168C282.206 15.9333 282.103 15.618 282.103 15.222C282.103 14.7087 282.301 14.2833 282.697 13.946C283.093 13.6087 283.621 13.44 284.281 13.44C284.956 13.44 285.565 13.6307 286.107 14.012C286.665 14.3787 287.09 14.892 287.383 15.552L288.791 14.892C288.454 13.968 287.875 13.2493 287.053 12.736C286.247 12.208 285.345 11.944 284.347 11.944C283.614 11.944 282.947 12.0833 282.345 12.362C281.744 12.6407 281.267 13.0367 280.915 13.55C280.563 14.0633 280.387 14.6647 280.387 15.354C280.387 16.0873 280.629 16.7327 281.113 17.29C281.597 17.8473 282.382 18.28 283.467 18.588L285.161 19.072C285.396 19.1307 285.667 19.226 285.975 19.358C286.283 19.49 286.555 19.6807 286.789 19.93C287.024 20.1647 287.141 20.4873 287.141 20.898C287.141 21.4553 286.899 21.91 286.415 22.262C285.931 22.5993 285.337 22.768 284.633 22.768C283.9 22.768 283.225 22.5553 282.609 22.13C282.008 21.7047 281.539 21.1327 281.201 20.414L279.815 21.074C280.197 22.0567 280.813 22.834 281.663 23.406C282.514 23.978 283.504 24.264 284.633 24.264ZM297.233 10.03H298.883V7.61H297.233V10.03ZM297.233 24H298.883V12.208H297.233V24ZM303.14 24H304.79V16.982C304.79 15.926 305.084 15.0973 305.67 14.496C306.257 13.8947 306.998 13.594 307.892 13.594C308.802 13.594 309.535 13.8947 310.092 14.496C310.664 15.0827 310.95 15.9113 310.95 16.982V24H312.6V16.344C312.6 15.508 312.402 14.76 312.006 14.1C311.625 13.4253 311.097 12.8973 310.422 12.516C309.762 12.1347 309.014 11.944 308.178 11.944C307.445 11.944 306.785 12.098 306.198 12.406C305.612 12.714 305.142 13.132 304.79 13.66V12.208H303.14V24ZM321.25 10.03H322.9V7.61H321.25V10.03ZM321.25 24H322.9V12.208H321.25V24ZM327.157 24H328.807V16.982C328.807 15.926 329.101 15.0973 329.687 14.496C330.274 13.8947 331.015 13.594 331.909 13.594C332.819 13.594 333.552 13.8947 334.109 14.496C334.681 15.0827 334.967 15.9113 334.967 16.982V24H336.617V16.344C336.617 15.508 336.419 14.76 336.023 14.1C335.642 13.4253 335.114 12.8973 334.439 12.516C333.779 12.1347 333.031 11.944 332.195 11.944C331.462 11.944 330.802 12.098 330.215 12.406C329.629 12.714 329.159 13.132 328.807 13.66V12.208H327.157V24ZM345.973 24.264C346.882 24.264 347.718 24.0733 348.481 23.692C349.243 23.3107 349.845 22.7753 350.285 22.086V24H351.935V7.346H350.285V13.99C349.801 13.3593 349.192 12.8607 348.459 12.494C347.725 12.1273 346.897 11.944 345.973 11.944C344.858 11.944 343.861 12.2153 342.981 12.758C342.115 13.286 341.426 14.012 340.913 14.936C340.414 15.86 340.165 16.916 340.165 18.104C340.165 19.2773 340.414 20.3333 340.913 21.272C341.426 22.196 342.123 22.9293 343.003 23.472C343.883 24 344.873 24.264 345.973 24.264ZM346.061 22.614C345.269 22.614 344.557 22.416 343.927 22.02C343.311 21.624 342.819 21.0887 342.453 20.414C342.101 19.7247 341.925 18.9547 341.925 18.104C341.925 17.2387 342.101 16.4687 342.453 15.794C342.819 15.1193 343.318 14.584 343.949 14.188C344.579 13.792 345.283 13.594 346.061 13.594C346.853 13.594 347.564 13.792 348.195 14.188C348.84 14.584 349.346 15.1267 349.713 15.816C350.094 16.4907 350.285 17.2533 350.285 18.104C350.285 18.9547 350.094 19.7247 349.713 20.414C349.346 21.0887 348.84 21.624 348.195 22.02C347.564 22.416 346.853 22.614 346.061 22.614ZM361.725 24.264C362.825 24.264 363.822 24 364.717 23.472C365.626 22.944 366.352 22.218 366.895 21.294C367.437 20.3553 367.709 19.2847 367.709 18.082C367.709 16.894 367.445 15.838 366.917 14.914C366.403 13.99 365.692 13.264 364.783 12.736C363.888 12.208 362.869 11.944 361.725 11.944C360.581 11.944 359.554 12.2153 358.645 12.758C357.75 13.286 357.039 14.012 356.511 14.936C355.983 15.86 355.719 16.9087 355.719 18.082C355.719 19.27 355.983 20.3333 356.511 21.272C357.053 22.196 357.779 22.9293 358.689 23.472C359.598 24 360.61 24.264 361.725 24.264ZM361.725 22.614C360.933 22.614 360.214 22.416 359.569 22.02C358.938 21.624 358.432 21.0813 358.051 20.392C357.669 19.7027 357.479 18.9327 357.479 18.082C357.479 17.2313 357.669 16.4687 358.051 15.794C358.432 15.1193 358.938 14.584 359.569 14.188C360.214 13.792 360.933 13.594 361.725 13.594C362.517 13.594 363.228 13.792 363.859 14.188C364.504 14.584 365.01 15.1193 365.377 15.794C365.758 16.4687 365.949 17.2313 365.949 18.082C365.949 18.9327 365.758 19.7027 365.377 20.392C365.01 21.0813 364.504 21.624 363.859 22.02C363.228 22.416 362.517 22.614 361.725 22.614ZM371.499 24H373.149V16.982C373.149 15.926 373.442 15.0973 374.029 14.496C374.615 13.8947 375.356 13.594 376.251 13.594C377.16 13.594 377.893 13.8947 378.451 14.496C379.023 15.0827 379.309 15.9113 379.309 16.982V24H380.959V16.344C380.959 15.508 380.761 14.76 380.365 14.1C379.983 13.4253 379.455 12.8973 378.781 12.516C378.121 12.1347 377.373 11.944 376.537 11.944C375.803 11.944 375.143 12.098 374.557 12.406C373.97 12.714 373.501 13.132 373.149 13.66V12.208H371.499V24ZM390.358 24.264C391.165 24.264 391.898 24.132 392.558 23.868C393.233 23.5893 393.812 23.23 394.296 22.79C394.78 22.3353 395.139 21.844 395.374 21.316L393.966 20.568C393.599 21.184 393.123 21.6973 392.536 22.108C391.949 22.5187 391.223 22.724 390.358 22.724C389.654 22.724 388.994 22.5553 388.378 22.218C387.762 21.8807 387.256 21.4113 386.86 20.81C386.479 20.194 386.273 19.4607 386.244 18.61H395.528C395.557 18.4193 395.579 18.236 395.594 18.06C395.609 17.8693 395.616 17.7007 395.616 17.554C395.616 16.85 395.491 16.168 395.242 15.508C394.993 14.8333 394.633 14.232 394.164 13.704C393.695 13.1613 393.123 12.736 392.448 12.428C391.788 12.1053 391.033 11.944 390.182 11.944C389.111 11.944 388.143 12.208 387.278 12.736C386.427 13.264 385.753 13.99 385.254 14.914C384.755 15.8233 384.506 16.872 384.506 18.06C384.506 19.248 384.763 20.3113 385.276 21.25C385.789 22.1887 386.486 22.9293 387.366 23.472C388.261 24 389.258 24.264 390.358 24.264ZM390.182 13.484C390.842 13.484 391.443 13.638 391.986 13.946C392.543 14.254 392.983 14.6793 393.306 15.222C393.643 15.75 393.819 16.366 393.834 17.07H386.288C386.376 16.3367 386.603 15.706 386.97 15.178C387.351 14.6353 387.821 14.2173 388.378 13.924C388.935 13.6307 389.537 13.484 390.182 13.484ZM403.497 24.264C404.318 24.264 405.044 24.1247 405.675 23.846C406.306 23.5527 406.797 23.1493 407.149 22.636C407.516 22.1227 407.699 21.5433 407.699 20.898C407.699 20.106 407.428 19.4167 406.885 18.83C406.357 18.2433 405.616 17.8107 404.663 17.532L402.705 16.96C402.5 16.9013 402.258 16.8133 401.979 16.696C401.715 16.5787 401.48 16.4027 401.275 16.168C401.07 15.9333 400.967 15.618 400.967 15.222C400.967 14.7087 401.165 14.2833 401.561 13.946C401.957 13.6087 402.485 13.44 403.145 13.44C403.82 13.44 404.428 13.6307 404.971 14.012C405.528 14.3787 405.954 14.892 406.247 15.552L407.655 14.892C407.318 13.968 406.738 13.2493 405.917 12.736C405.11 12.208 404.208 11.944 403.211 11.944C402.478 11.944 401.81 12.0833 401.209 12.362C400.608 12.6407 400.131 13.0367 399.779 13.55C399.427 14.0633 399.251 14.6647 399.251 15.354C399.251 16.0873 399.493 16.7327 399.977 17.29C400.461 17.8473 401.246 18.28 402.331 18.588L404.025 19.072C404.26 19.1307 404.531 19.226 404.839 19.358C405.147 19.49 405.418 19.6807 405.653 19.93C405.888 20.1647 406.005 20.4873 406.005 20.898C406.005 21.4553 405.763 21.91 405.279 22.262C404.795 22.5993 404.201 22.768 403.497 22.768C402.764 22.768 402.089 22.5553 401.473 22.13C400.872 21.7047 400.402 21.1327 400.065 20.414L398.679 21.074C399.06 22.0567 399.676 22.834 400.527 23.406C401.378 23.978 402.368 24.264 403.497 24.264ZM411.478 10.03H413.128V7.61H411.478V10.03ZM411.478 24H413.128V12.208H411.478V24ZM420.796 24.264C421.705 24.264 422.526 24.0807 423.26 23.714C423.993 23.3473 424.55 22.878 424.932 22.306V24H426.582V15.904C426.582 15.1267 426.391 14.4447 426.01 13.858C425.643 13.2567 425.122 12.7873 424.448 12.45C423.788 12.1127 423.025 11.944 422.16 11.944C421.5 11.944 420.862 12.0687 420.246 12.318C419.63 12.5527 419.08 12.8753 418.596 13.286C418.126 13.6967 417.782 14.1513 417.562 14.65L419.058 15.464C419.322 14.892 419.725 14.43 420.268 14.078C420.81 13.7113 421.441 13.528 422.16 13.528C422.981 13.528 423.648 13.748 424.162 14.188C424.675 14.628 424.932 15.2 424.932 15.904V16.52L420.664 17.224C419.358 17.444 418.405 17.8913 417.804 18.566C417.202 19.2407 416.902 20.0327 416.902 20.942C416.902 21.5873 417.07 22.1593 417.408 22.658C417.745 23.1567 418.207 23.5527 418.794 23.846C419.38 24.1247 420.048 24.264 420.796 24.264ZM418.662 20.876C418.662 20.3333 418.845 19.864 419.212 19.468C419.593 19.072 420.209 18.8007 421.06 18.654L424.932 18.016V18.896C424.932 19.6147 424.763 20.2673 424.426 20.854C424.088 21.4407 423.619 21.91 423.018 22.262C422.416 22.5993 421.712 22.768 420.906 22.768C420.246 22.768 419.703 22.5847 419.278 22.218C418.867 21.8513 418.662 21.404 418.662 20.876Z" fill="#8B8C8C"/>
<defs>
<clipPath id="clip0_17_374">
<rect width="90" height="28" fill="white" transform="translate(0 65)"/>
</clipPath>
<clipPath id="clip1_17_374">
<rect width="84" height="24" fill="white" transform="translate(154 67)"/>
</clipPath>
<clipPath id="clip2_17_374">
<rect width="84" height="28" fill="white" transform="translate(154 125)"/>
</clipPath>
<clipPath id="clip3_17_374">
<rect width="122" height="26" fill="white" transform="translate(0 126)"/>
</clipPath>
</defs>
</svg>
