<svg width="144" height="25" viewBox="0 0 144 25" fill="none" xmlns="http://www.w3.org/2000/svg">
<g clip-path="url(#clip0_20_900)">
<path opacity="0.1" fill-rule="evenodd" clip-rule="evenodd" d="M0 12.3857C0 5.75833 5.37258 0.385742 12 0.385742C18.6274 0.385742 24 5.75833 24 12.3857C24 19.0132 18.6274 24.3857 12 24.3857C5.37258 24.3857 0 19.0132 0 12.3857Z" fill="#F9F8F9"/>
<path fill-rule="evenodd" clip-rule="evenodd" d="M12.0006 5.98584C10.2624 5.98584 10.0443 5.99344 9.36161 6.02451C8.68027 6.05571 8.2152 6.16358 7.80827 6.32184C7.38733 6.48531 7.03026 6.70398 6.67452 7.05985C6.31852 7.41559 6.09985 7.77266 5.93585 8.19346C5.77718 8.60053 5.66918 9.06574 5.63851 9.74681C5.60798 10.4295 5.59998 10.6478 5.59998 12.3859C5.59998 14.1241 5.60771 14.3415 5.63864 15.0242C5.66998 15.7055 5.77784 16.1706 5.93598 16.5775C6.09958 16.9985 6.31825 17.3556 6.67412 17.7113C7.02972 18.0673 7.38679 18.2865 7.80747 18.45C8.21467 18.6082 8.67987 18.7161 9.36108 18.7473C10.0438 18.7784 10.2618 18.786 11.9998 18.786C13.7381 18.786 13.9555 18.7784 14.6382 18.7473C15.3195 18.7161 15.7851 18.6082 16.1924 18.45C16.6132 18.2865 16.9697 18.0673 17.3253 17.7113C17.6813 17.3556 17.9 16.9985 18.064 16.5777C18.2213 16.1706 18.3293 15.7054 18.3613 15.0243C18.392 14.3417 18.4 14.1241 18.4 12.3859C18.4 10.6478 18.392 10.4296 18.3613 9.74695C18.3293 9.0656 18.2213 8.60053 18.064 8.1936C17.9 7.77266 17.6813 7.41559 17.3253 7.05985C16.9693 6.70385 16.6133 6.48518 16.192 6.32184C15.7839 6.16358 15.3186 6.05571 14.6373 6.02451C13.9546 5.99344 13.7373 5.98584 11.9986 5.98584H12.0006ZM11.4264 7.13917C11.5968 7.1389 11.7869 7.13917 12.0005 7.13917C13.7094 7.13917 13.9119 7.1453 14.5867 7.17597C15.2107 7.2045 15.5494 7.30877 15.775 7.39637C16.0737 7.51237 16.2866 7.65104 16.5105 7.87504C16.7345 8.09904 16.8731 8.31238 16.9894 8.61105C17.077 8.83639 17.1814 9.17506 17.2098 9.79906C17.2405 10.4737 17.2471 10.6764 17.2471 12.3844C17.2471 14.0924 17.2405 14.2951 17.2098 14.9698C17.1813 15.5938 17.077 15.9325 16.9894 16.1578C16.8734 16.4565 16.7345 16.6691 16.5105 16.893C16.2865 17.117 16.0738 17.2557 15.775 17.3717C15.5497 17.4597 15.2107 17.5637 14.5867 17.5922C13.912 17.6229 13.7094 17.6295 12.0005 17.6295C10.2916 17.6295 10.0891 17.6229 9.41439 17.5922C8.79038 17.5634 8.45171 17.4591 8.22598 17.3715C7.92731 17.2555 7.71397 17.1169 7.48997 16.8929C7.26597 16.6689 7.1273 16.4561 7.01103 16.1573C6.92343 15.9319 6.81903 15.5933 6.79063 14.9692C6.75996 14.2946 6.75383 14.0919 6.75383 12.3828C6.75383 10.6737 6.75996 10.4721 6.79063 9.79746C6.81916 9.17345 6.92343 8.83478 7.01103 8.60918C7.12703 8.31051 7.26597 8.09718 7.48997 7.87317C7.71397 7.64917 7.92731 7.5105 8.22598 7.39424C8.45158 7.30624 8.79038 7.20223 9.41439 7.17357C10.0048 7.1469 10.2336 7.1389 11.4264 7.13757V7.13917ZM15.4169 8.20185C14.9928 8.20185 14.6488 8.54545 14.6488 8.96959C14.6488 9.39359 14.9928 9.7376 15.4169 9.7376C15.8409 9.7376 16.1849 9.39359 16.1849 8.96959C16.1849 8.54558 15.8409 8.20185 15.4169 8.20185ZM12.0006 9.09919C10.1855 9.09919 8.71389 10.5708 8.71389 12.3859C8.71389 14.201 10.1855 15.6719 12.0006 15.6719C13.8157 15.6719 15.2868 14.201 15.2868 12.3859C15.2868 10.5708 13.8157 9.09919 12.0006 9.09919ZM12.0006 10.2525C13.1787 10.2525 14.1339 11.2076 14.1339 12.3859C14.1339 13.564 13.1787 14.5192 12.0006 14.5192C10.8223 14.5192 9.86721 13.564 9.86721 12.3859C9.86721 11.2076 10.8223 10.2525 12.0006 10.2525Z" fill="white"/>
<path opacity="0.1" fill-rule="evenodd" clip-rule="evenodd" d="M40 12.3857C40 5.75833 45.3726 0.385742 52 0.385742C58.6274 0.385742 64 5.75833 64 12.3857C64 19.0132 58.6274 24.3857 52 24.3857C45.3726 24.3857 40 19.0132 40 12.3857Z" fill="#F9F8F9"/>
<path fill-rule="evenodd" clip-rule="evenodd" d="M58.4 12.377C58.4 12.8098 58.3559 13.242 58.2694 13.6633C58.185 14.0746 58.06 14.4784 57.8962 14.8644C57.7362 15.2436 57.5378 15.609 57.3059 15.9498C57.0774 16.2884 56.8143 16.6061 56.5252 16.8957C56.2355 17.184 55.9167 17.4465 55.5783 17.6759C55.2364 17.9061 54.8705 18.1043 54.4911 18.265C54.1045 18.4279 53.6997 18.5527 53.2888 18.637C52.8669 18.7238 52.4331 18.7681 51.9997 18.7681C51.5659 18.7681 51.1321 18.7238 50.7109 18.637C50.2993 18.5527 49.8946 18.4279 49.5083 18.265C49.1289 18.1043 48.7626 17.9061 48.4208 17.6759C48.0823 17.4465 47.7635 17.184 47.4745 16.8957C47.1851 16.6061 46.9219 16.2884 46.6932 15.9498C46.4625 15.609 46.2638 15.2436 46.1031 14.8644C45.9394 14.4784 45.8141 14.0746 45.7294 13.6633C45.6437 13.242 45.6 12.8098 45.6 12.377C45.6 11.9438 45.6437 11.5107 45.7294 11.0903C45.8141 10.679 45.9394 10.2746 46.1032 9.88917C46.2638 9.5097 46.4626 9.14397 46.6932 8.80318C46.922 8.46429 47.1851 8.14721 47.4745 7.85729C47.7636 7.56893 48.0823 7.30713 48.4208 7.07808C48.7627 6.84683 49.129 6.64869 49.5083 6.48765C49.8946 6.32441 50.2993 6.19929 50.7109 6.11566C51.1322 6.02954 51.5659 5.98584 51.9997 5.98584C52.4332 5.98584 52.8669 6.02954 53.2888 6.11566C53.6998 6.19931 54.1045 6.32443 54.4911 6.48765C54.8705 6.64866 55.2364 6.84683 55.5783 7.07808C55.9168 7.30713 56.2356 7.56893 56.5252 7.85729C56.8143 8.14721 57.0775 8.46429 57.3059 8.80318C57.5378 9.14397 57.7362 9.50973 57.8962 9.88917C58.06 10.2746 58.185 10.679 58.2694 11.0903C58.3559 11.5107 58.4 11.9438 58.4 12.377ZM49.6677 7.44037C48.1435 8.15908 47.006 9.5615 46.6512 11.2516C46.7953 11.2529 49.0729 11.2816 51.6971 10.5854C50.7512 8.90708 49.7405 7.53745 49.6677 7.44037ZM52.15 11.4258C49.3358 12.2671 46.6353 12.2066 46.5384 12.2028C46.5369 12.2615 46.5341 12.3183 46.5341 12.377C46.5341 13.7791 47.0638 15.0573 47.9344 16.0238C47.9326 16.0209 49.4283 13.3712 52.3778 12.4188C52.449 12.3951 52.5216 12.3738 52.5934 12.3532C52.4563 12.0431 52.3065 11.7322 52.15 11.4258ZM55.6092 8.28078C54.647 7.4335 53.3835 6.91956 51.9997 6.91956C51.5556 6.91956 51.1246 6.97324 50.7118 7.07247C50.7937 7.18234 51.8203 8.5423 52.755 10.2561C54.8173 9.48411 55.5958 8.30074 55.6092 8.28078ZM52.966 13.2576C52.9538 13.2616 52.9416 13.2651 52.9297 13.2695C49.7049 14.3921 48.6518 16.6544 48.6404 16.6791C49.5683 17.3996 50.7321 17.8344 51.9997 17.8344C52.7566 17.8344 53.4776 17.6805 54.1335 17.4018C54.0526 16.925 53.7351 15.2536 52.966 13.2576ZM55.0539 16.9032C56.2811 16.0762 57.1527 14.763 57.3959 13.242C57.2834 13.2058 55.7542 12.7224 53.9901 13.0048C54.707 14.9721 54.9983 16.5743 55.0539 16.9032ZM53.1757 11.0694C53.3026 11.3297 53.4254 11.5946 53.5388 11.8608C53.5792 11.9563 53.6185 12.0499 53.657 12.1435C55.5346 11.9076 57.3843 12.3045 57.4634 12.3208C57.4509 11.0269 56.9874 9.83953 56.2206 8.90991C56.2102 8.92454 55.3336 10.1894 53.1757 11.0694Z" fill="white"/>
<path opacity="0.1" fill-rule="evenodd" clip-rule="evenodd" d="M80 12.3857C80 5.75833 85.3726 0.385742 92 0.385742C98.6274 0.385742 104 5.75833 104 12.3857C104 19.0132 98.6274 24.3857 92 24.3857C85.3726 24.3857 80 19.0132 80 12.3857Z" fill="#F9F8F9"/>
<path fill-rule="evenodd" clip-rule="evenodd" d="M91.6406 10.1394L91.6658 10.5547L91.2461 10.5038C89.7184 10.3089 88.3838 9.64795 87.2507 8.53785L86.6967 7.98704L86.554 8.3938C86.2518 9.30052 86.4449 10.2581 87.0744 10.9021C87.4102 11.258 87.3346 11.3089 86.7554 11.097C86.554 11.0292 86.3777 10.9784 86.3609 11.0038C86.3022 11.0631 86.5036 11.8342 86.6631 12.1393C86.8813 12.563 87.3262 12.9782 87.8131 13.224L88.2243 13.4189L87.7375 13.4274C87.2675 13.4274 87.2507 13.4358 87.301 13.6138C87.4689 14.1646 88.132 14.7493 88.8707 15.0035L89.3911 15.1815L88.9378 15.4527C88.2663 15.8425 87.4773 16.0628 86.6883 16.0797C86.3106 16.0882 86 16.1221 86 16.1475C86 16.2323 87.024 16.7068 87.62 16.8932C89.4079 17.4441 91.5315 17.2068 93.1263 16.2662C94.2595 15.5967 95.3926 14.2663 95.9214 12.9782C96.2068 12.2918 96.4922 11.0377 96.4922 10.436C96.4922 10.0462 96.5174 9.99539 96.9874 9.52931C97.2644 9.25815 97.5246 8.96155 97.575 8.87681C97.6589 8.71581 97.6505 8.71581 97.2224 8.85987C96.509 9.11409 96.4083 9.08019 96.7608 8.69886C97.021 8.42769 97.3316 7.9362 97.3316 7.79214C97.3316 7.76672 97.2057 7.80909 97.063 7.88535C96.9119 7.97009 96.5761 8.0972 96.3243 8.17347L95.8711 8.31753L95.4598 8.03789C95.2331 7.88535 94.9142 7.71587 94.7463 7.66503C94.3182 7.54639 93.6635 7.56334 93.2774 7.69893C92.2282 8.08026 91.5651 9.06324 91.6406 10.1394Z" fill="white"/>
<path opacity="0.1" fill-rule="evenodd" clip-rule="evenodd" d="M120 12.3857C120 5.75833 125.373 0.385742 132 0.385742C138.627 0.385742 144 5.75833 144 12.3857C144 19.0132 138.627 24.3857 132 24.3857C125.373 24.3857 120 19.0132 120 12.3857Z" fill="#F9F8F9"/>
<path fill-rule="evenodd" clip-rule="evenodd" d="M137.001 8.2605C137.552 8.41164 137.985 8.85695 138.132 9.42245C138.4 10.4474 138.4 12.5858 138.4 12.5858C138.4 12.5858 138.4 14.7242 138.132 15.7492C137.985 16.3147 137.552 16.76 137.001 16.9112C136.003 17.1858 132 17.1858 132 17.1858C132 17.1858 127.997 17.1858 126.999 16.9112C126.448 16.76 126.015 16.3147 125.867 15.7492C125.6 14.7242 125.6 12.5858 125.6 12.5858C125.6 12.5858 125.6 10.4474 125.867 9.42245C126.015 8.85695 126.448 8.41164 126.999 8.2605C127.997 7.98584 132 7.98584 132 7.98584C132 7.98584 136.003 7.98584 137.001 8.2605ZM130.8 10.7858V14.7858L134 12.7859L130.8 10.7858Z" fill="white"/>
</g>
<defs>
<clipPath id="clip0_20_900">
<rect width="144" height="24" fill="white" transform="translate(0 0.385742)"/>
</clipPath>
</defs>
</svg>
